<?xml version="1.0" encoding="UTF-8" standalone="no"?>
<svg
   xmlns:dc="http://purl.org/dc/elements/1.1/"
   xmlns:cc="http://creativecommons.org/ns#"
   xmlns:rdf="http://www.w3.org/1999/02/22-rdf-syntax-ns#"
   xmlns:svg="http://www.w3.org/2000/svg"
   xmlns="http://www.w3.org/2000/svg"
   xmlns:sodipodi="http://sodipodi.sourceforge.net/DTD/sodipodi-0.dtd"
   xmlns:inkscape="http://www.inkscape.org/namespaces/inkscape"
   height="900mm"
   version="1.1"
   viewBox="0 0 900 900"
   width="900mm"
   id="svg3947"
   sodipodi:docname="frontLayoutEN.svg"
   inkscape:version="1.0.2 (e86c870879, 2021-01-15, custom)">
  <metadata
     id="metadata3951">
    <rdf:RDF>
      <cc:Work
         rdf:about="">
        <dc:format>image/svg+xml</dc:format>
        <dc:type
           rdf:resource="http://purl.org/dc/dcmitype/StillImage" />
        <dc:title></dc:title>
      </cc:Work>
    </rdf:RDF>
  </metadata>
  <sodipodi:namedview
     showborder="true"
     inkscape:showpageshadow="false"
     pagecolor="#ffffff"
     bordercolor="#0000ff"
     borderopacity="1"
     objecttolerance="10"
     gridtolerance="10"
     guidetolerance="10"
     inkscape:pageopacity="0"
     inkscape:pageshadow="2"
     inkscape:window-width="1920"
     inkscape:window-height="1025"
     id="namedview3949"
     showgrid="true"
     inkscape:zoom="0.18868056"
     inkscape:cx="3044.9809"
     inkscape:cy="1177.8147"
     inkscape:window-x="0"
     inkscape:window-y="26"
     inkscape:window-maximized="1"
     inkscape:current-layer="layer2"
     inkscape:document-rotation="0"
     inkscape:document-units="mm"
     inkscape:lockguides="false">
    <inkscape:grid
       type="xygrid"
       id="grid8368"
       originx="0"
       originy="-1.4210855e-14" />
  </sodipodi:namedview>
  <defs
     id="defs3713">
    <rect
       x="218.28125"
       y="396.875"
       width="14.552083"
       height="17.197918"
       id="rect2496" />
    <rect
       x="215.63542"
       y="398.19791"
       width="11.90625"
       height="11.90625"
       id="rect2490" />
  </defs>
  <g
     inkscape:groupmode="layer"
     id="layer2"
     inkscape:label="background"
     style="display:inline"
     sodipodi:insensitive="true">
    <g
       id="g8631"
       style="display:inline">
      <rect
         height="900.00037"
         width="900.00037"
         x="0"
         y="2.842172e-14"
         id="rect3715"
         fill="rgb(255,255,255)"
         style="fill:#ffffff;fill-opacity:0.0117447;stroke-width:2.00026;stroke-miterlimit:4;stroke-dasharray:none" />
    </g>
  </g>
  <g
     inkscape:groupmode="layer"
     id="layer14"
     inkscape:label="dots"
     sodipodi:insensitive="true"
     style="display:inline">
    <g
       id="g806"
       transform="matrix(2.0000008,0,0,2.0000008,-0.7641095,1.631914)"
       style="display:inline">
      <circle
         style="font-size:22px;font-family:Arial;text-anchor:middle;fill:#0000ff"
         id="circle3937"
         r="2.5"
         cy="19.184038"
         cx="20.382063" />
      <circle
         style="font-size:22px;font-family:Arial;text-anchor:middle;fill:#0000ff"
         id="circle3939"
         r="2.5"
         cy="19.184038"
         cx="430.38205" />
      <circle
         style="font-size:22px;font-family:Arial;text-anchor:middle;fill:#0000ff"
         id="circle3941"
         r="2.5"
         cy="429.18405"
         cx="20.382063" />
      <circle
         style="font-size:22px;font-family:Arial;text-anchor:middle;fill:#0000ff"
         id="circle3943"
         r="2.5"
         cy="429.18405"
         cx="430.38205" />
    </g>
  </g>
  <g
     inkscape:groupmode="layer"
     id="layer13"
     inkscape:label="letters"
     sodipodi:insensitive="true"
     style="display:inline">
    <g
       inkscape:groupmode="layer"
       id="layer1"
       inkscape:label="col0"
       style="display:inline" />
    <g
       inkscape:groupmode="layer"
       id="layer3"
       inkscape:label="col1"
       style="display:inline" />
    <g
       inkscape:groupmode="layer"
       id="layer4"
       inkscape:label="col2"
       style="display:inline" />
    <g
       inkscape:groupmode="layer"
       id="layer5"
       inkscape:label="col3"
       style="display:inline" />
    <g
       inkscape:groupmode="layer"
       id="layer6"
       inkscape:label="col4"
       style="display:inline">
      <text
         xml:space="preserve"
         id="text2488"
         style="font-style:normal;font-weight:normal;font-size:10.5833px;line-height:1.25;font-family:sans-serif;white-space:pre;shape-inside:url(#rect2490);fill:#000000;fill-opacity:1;stroke:none;"
         transform="translate(105.83334)" />
    </g>
    <g
       inkscape:groupmode="layer"
       id="layer7"
       inkscape:label="col5"
       style="display:inline" />
    <g
       inkscape:groupmode="layer"
       id="layer8"
       inkscape:label="col6"
       style="display:inline" />
    <g
       inkscape:groupmode="layer"
       id="layer9"
       inkscape:label="col7"
       style="display:inline;mix-blend-mode:normal" />
    <g
       inkscape:groupmode="layer"
       id="layer10"
       inkscape:label="col8"
       style="display:inline" />
    <g
       inkscape:groupmode="layer"
       id="layer11"
       inkscape:label="col9"
       style="display:inline" />
    <g
       inkscape:groupmode="layer"
       id="layer12"
       inkscape:label="col10"
       style="display:inline">
      <g
         id="text3871"
         style="font-size:22px;font-family:Arial;text-anchor:middle;display:inline;fill:#0000ff"
         aria-label="E"
         transform="matrix(2.0000008,0,0,2.0000008,34.222884,-14.16863)">
        <path
           inkscape:connector-curvature="0"
           id="path4830"
           d="M 69.392578,319.33334 V 303.5853 h 11.386719 v 1.8584 h -9.302735 v 4.82324 h 8.711915 v 1.84765 h -8.711915 v 5.36036 h 9.667969 v 1.85839 z" />
      </g>
      <g
         id="text3723-3-7"
         style="font-size:22px;font-family:Arial;text-anchor:middle;display:inline;fill:#0000ff"
         aria-label="I"
         transform="matrix(2.0000008,0,0,2.0445094,-92.409269,449.02096)">
        <path
           inkscape:connector-curvature="0"
           id="path4606-5-3"
           d="M 164.00098,86 V 70.251953 h 2.08398 V 86 Z" />
      </g>
      <g
         id="text3759-6"
         style="font-size:22px;font-family:Arial;text-anchor:middle;display:inline;fill:#0000ff"
         aria-label="G"
         transform="matrix(2.0000008,0,0,2.0000008,-459.21352,385.83145)">
        <path
           inkscape:connector-curvature="0"
           id="path4630-3"
           d="m 375.51562,113.15659 v -1.84766 l 6.6709,-0.0107 v 5.84375 q -1.53613,1.22461 -3.16894,1.84765 -1.63281,0.61231 -3.35156,0.61231 -2.32032,0 -4.22168,-0.98828 -1.89063,-0.99903 -2.85743,-2.87891 -0.96679,-1.87988 -0.96679,-4.20019 0,-2.29883 0.95605,-4.28614 0.9668,-1.99804 2.77149,-2.96484 1.80468,-0.9668 4.15722,-0.9668 1.70801,0 3.08301,0.5586 1.38574,0.54785 2.16992,1.53613 0.78418,0.98828 1.19239,2.57812 l -1.87989,0.51563 q -0.35449,-1.20313 -0.88086,-1.89063 -0.52636,-0.6875 -1.5039,-1.0957 -0.97754,-0.41894 -2.16993,-0.41894 -1.42871,0 -2.4707,0.44042 -1.04199,0.42969 -1.68652,1.13868 -0.63379,0.70898 -0.98828,1.55761 -0.60157,1.46094 -0.60157,3.16895 0,2.10547 0.71973,3.52344 0.73047,1.41797 2.11621,2.10547 1.38574,0.6875 2.94336,0.6875 1.35352,0 2.64258,-0.51563 1.28906,-0.52637 1.95508,-1.11719 v -2.93261 z" />
      </g>
      <g
         id="text3805-4"
         style="font-size:22px;font-family:Arial;text-anchor:middle;display:inline;fill:#0000ff"
         aria-label="H"
         transform="matrix(2.0000008,0,0,2.0000008,193.53156,185.83148)">
        <path
           inkscape:connector-curvature="0"
           id="path4711-5"
           d="m 68.8125,219.33333 v -15.74805 h 2.083984 v 6.4668 h 8.185547 v -6.4668 h 2.083985 v 15.74805 h -2.083985 v -7.42285 h -8.185547 v 7.42285 z" />
      </g>
      <g
         id="text3783-2-0-2-9"
         style="font-size:22px;font-family:Arial;text-anchor:middle;display:inline;fill:#0000ff"
         aria-label="T"
         transform="matrix(2.0000008,0,0,2.0000008,265.47771,292.1857)">
        <path
           inkscape:connector-curvature="0"
           id="path4708-9-6-3-2"
           d="M 64.42181,166.15625 V 152.2666 h -5.188476 v -1.8584 h 12.482421 v 1.8584 h -5.20996 v 13.88965 z" />
      </g>
      <g
         id="text3871-4-2-0-9"
         style="font-size:22px;font-family:Arial;text-anchor:middle;display:inline;fill:#0000ff"
         aria-label="E"
         transform="matrix(2.0000008,0,0,2.0000008,298.8064,-14.16863)">
        <path
           inkscape:connector-curvature="0"
           id="path4830-7-5-6-4"
           d="M 69.392578,319.33334 V 303.5853 h 11.386719 v 1.8584 h -9.302735 v 4.82324 h 8.711915 v 1.84765 h -8.711915 v 5.36036 h 9.667969 v 1.85839 z" />
      </g>
      <g
         id="text3821-5-0"
         style="font-size:22px;font-family:Arial;text-anchor:middle;display:inline;fill:#0000ff"
         aria-label="L"
         transform="matrix(2.0000008,0,0,2.0000008,-128.5564,185.83148)">
        <path
           inkscape:connector-curvature="0"
           id="path4743-0-8"
           d="m 310.48828,219.33333 v -15.74805 h 2.08399 v 13.88965 h 7.75585 v 1.8584 z" />
      </g>
      <g
         id="text3871-4-2-0-9-0"
         style="font-size:22px;font-family:Arial;text-anchor:middle;display:inline;mix-blend-mode:normal;fill:#0000ff"
         aria-label="E"
         transform="matrix(2.0000008,0,0,2.0000008,404.63984,-14.16863)">
        <path
           inkscape:connector-curvature="0"
           id="path4830-7-5-6-4-3"
           d="M 69.392578,319.33334 V 303.5853 h 11.386719 v 1.8584 h -9.302735 v 4.82324 h 8.711915 v 1.84765 h -8.711915 v 5.36036 h 9.667969 v 1.85839 z" />
      </g>
      <g
         id="text3885-6-1-5"
         style="font-size:22px;font-family:Arial;text-anchor:middle;display:inline;fill:#0000ff"
         aria-label="V"
         transform="matrix(2.0000008,0,0,2.0000008,38.190079,-14.16863)">
        <path
           inkscape:connector-curvature="0"
           id="path4809-1-7-7"
           d="m 283.85059,319.33334 -6.10157,-15.74804 h 2.25586 l 4.09278,11.44043 q 0.49414,1.375 0.82714,2.57812 0.36524,-1.28906 0.84864,-2.57812 l 4.2539,-11.44043 h 2.12696 l -6.16602,15.74804 z" />
      </g>
      <g
         id="text3871-4-3"
         style="font-size:22px;font-family:Arial;text-anchor:middle;display:inline;fill:#0000ff"
         aria-label="E"
         transform="matrix(2.0000008,0,0,2.0000008,510.47328,-14.16863)">
        <path
           inkscape:connector-curvature="0"
           id="path4830-7-3"
           d="M 69.392578,319.33334 V 303.5853 h 11.386719 v 1.8584 h -9.302735 v 4.82324 h 8.711915 v 1.84765 h -8.711915 v 5.36036 h 9.667969 v 1.85839 z" />
      </g>
      <g
         id="text3787-2-2-8-4"
         style="font-size:22px;font-family:Arial;text-anchor:middle;display:inline;fill:#0000ff"
         aria-label="N"
         transform="matrix(2.0000008,0,0,2.0000008,444.0667,252.49818)">
        <path
           inkscape:connector-curvature="0"
           id="path4702-8-0-9-0"
           d="m 128.72656,186 v -15.74805 h 2.1377 l 8.27148,12.36426 v -12.36426 h 1.99805 V 186 h -2.1377 l -8.27148,-12.375 V 186 Z" />
      </g>
      <g
         id="text3917-3"
         style="font-size:22px;font-family:Arial;text-anchor:middle;display:inline;fill:#0000ff"
         aria-label="S"
         transform="matrix(2.0000008,0,0,2.0000008,-25.057388,-84.001968)">
        <path
           inkscape:connector-curvature="0"
           id="path4836-6"
           d="m 98.640625,380.94043 1.965825,-0.17188 q 0.13964,1.18165 0.64453,1.94434 0.51562,0.75195 1.58984,1.22461 1.07422,0.46191 2.41699,0.46191 1.19239,0 2.10547,-0.35449 0.91309,-0.35449 1.35352,-0.9668 0.45117,-0.62304 0.45117,-1.35351 0,-0.74121 -0.42969,-1.28906 -0.42969,-0.5586 -1.41797,-0.93457 -0.63379,-0.24707 -2.80371,-0.7627 -2.16992,-0.52637 -3.04004,-0.98828 -1.12793,-0.59082 -1.686521,-1.46094 -0.547852,-0.88086 -0.547852,-1.96582 0,-1.19238 0.676758,-2.22363 0.676755,-1.04199 1.976565,-1.5791 1.2998,-0.53711 2.88965,-0.53711 1.75097,0 3.083,0.56933 1.34278,0.5586 2.0625,1.6543 0.71973,1.0957 0.77344,2.48145 l -1.99805,0.15039 q -0.16113,-1.49317 -1.0957,-2.25586 -0.92383,-0.7627 -2.73926,-0.7627 -1.89062,0 -2.76074,0.69824 -0.85937,0.6875 -0.85937,1.66504 0,0.84864 0.6123,1.39649 0.60156,0.54785 3.13672,1.12793 2.5459,0.56933 3.49121,0.99902 1.375,0.63379 2.03027,1.61133 0.65528,0.9668 0.65528,2.23437 0,1.25684 -0.71973,2.37403 -0.71973,1.10644 -2.07324,1.72949 -1.34277,0.6123 -3.0293,0.6123 -2.13769,0 -3.58789,-0.62304 -1.43945,-0.62305 -2.2666,-1.86914 -0.816406,-1.25684 -0.859375,-2.83594 z" />
      </g>
      <g
         id="text3871-6"
         style="font-size:22px;font-family:Arial;text-anchor:middle;display:inline;fill:#0000ff"
         aria-label="E"
         transform="matrix(2.0000008,0,0,2.0000008,87.139577,49.331394)">
        <path
           inkscape:connector-curvature="0"
           id="path4830-1"
           d="M 69.392578,319.33334 V 303.5853 h 11.386719 v 1.8584 h -9.302735 v 4.82324 h 8.711915 v 1.84765 h -8.711915 v 5.36036 h 9.667969 v 1.85839 z" />
      </g>
      <g
         id="text3885-6"
         style="font-size:22px;font-family:Arial;text-anchor:middle;display:inline;fill:#0000ff"
         aria-label="V"
         transform="matrix(2.0000008,0,0,2.0000008,-279.31009,49.331394)">
        <path
           inkscape:connector-curvature="0"
           id="path4809-1"
           d="m 283.85059,319.33334 -6.10157,-15.74804 h 2.25586 l 4.09278,11.44043 q 0.49414,1.375 0.82714,2.57812 0.36524,-1.28906 0.84864,-2.57812 l 4.2539,-11.44043 h 2.12696 l -6.16602,15.74804 z" />
      </g>
      <g
         id="text3871-4-2"
         style="font-size:22px;font-family:Arial;text-anchor:middle;display:inline;fill:#0000ff"
         aria-label="E"
         transform="matrix(2.0000008,0,0,2.0000008,192.97296,49.331394)">
        <path
           inkscape:connector-curvature="0"
           id="path4830-7-5"
           d="M 69.392578,319.33334 V 303.5853 h 11.386719 v 1.8584 h -9.302735 v 4.82324 h 8.711915 v 1.84765 h -8.711915 v 5.36036 h 9.667969 v 1.85839 z" />
      </g>
      <g
         id="text3787-2-2-8"
         style="font-size:22px;font-family:Arial;text-anchor:middle;display:inline;fill:#0000ff"
         aria-label="N"
         transform="matrix(2.0000008,0,0,2.0000008,126.56641,315.99819)">
        <path
           inkscape:connector-curvature="0"
           id="path4702-8-0-9"
           d="m 128.72656,186 v -15.74805 h 2.1377 l 8.27148,12.36426 v -12.36426 h 1.99805 V 186 h -2.1377 l -8.27148,-12.375 V 186 Z" />
      </g>
      <g
         id="text3783-2-0-2-90"
         style="font-size:22px;font-family:Arial;text-anchor:middle;display:inline;fill:#0000ff"
         aria-label="T"
         transform="matrix(2.0000008,0,0,2.0000008,318.39443,355.6857)">
        <path
           inkscape:connector-curvature="0"
           id="path4708-9-6-3-9"
           d="M 64.42181,166.15625 V 152.2666 h -5.188476 v -1.8584 h 12.482421 v 1.8584 h -5.20996 v 13.88965 z" />
      </g>
      <g
         id="text3749-2-8"
         style="font-size:22px;font-family:Arial;text-anchor:middle;display:inline;fill:#0000ff"
         aria-label="W"
         transform="matrix(1.6424323,0,0,2.0000008,132.68653,449.33156)">
        <path
           inkscape:connector-curvature="0"
           id="path4642-0-5"
           d="M 219.07031,119.33334 214.8916,103.5853 h 2.1377 l 2.3955,10.32324 q 0.38672,1.62207 0.66602,3.22266 0.60156,-2.52442 0.70898,-2.91114 l 2.99707,-10.63476 h 2.51368 l 2.25586,7.9707 q 0.84863,2.96484 1.22461,5.5752 0.30078,-1.49317 0.78418,-3.42676 l 2.4707,-10.11914 h 2.09472 l -4.31835,15.74804 h -2.00879 l -3.31934,-11.99902 Q 225.0752,105.83041 225,105.48666 q -0.24707,1.08496 -0.46191,1.84766 l -3.34082,11.99902 z" />
      </g>
      <g
         id="text3871-4-2-0-9-04"
         style="font-size:22px;font-family:Arial;text-anchor:middle;display:inline;mix-blend-mode:normal;fill:#0000ff"
         aria-label="E"
         transform="matrix(2.0000008,0,0,2.0000008,404.63984,49.331394)">
        <path
           inkscape:connector-curvature="0"
           id="path4830-7-5-6-4-4"
           d="M 69.392578,319.33334 V 303.5853 h 11.386719 v 1.8584 h -9.302735 v 4.82324 h 8.711915 v 1.84765 h -8.711915 v 5.36036 h 9.667969 v 1.85839 z" />
      </g>
      <g
         id="text3821-5-0-4"
         style="font-size:22px;font-family:Arial;text-anchor:middle;display:inline;fill:#0000ff"
         aria-label="L"
         transform="matrix(2.0000008,0,0,2.0000008,-22.723025,249.3315)">
        <path
           inkscape:connector-curvature="0"
           id="path4743-0-8-1"
           d="m 310.48828,219.33333 v -15.74805 h 2.08399 v 13.88965 h 7.75585 v 1.8584 z" />
      </g>
      <g
         id="text3885-6-38"
         style="font-size:22px;font-family:Arial;text-anchor:middle;display:inline;fill:#0000ff"
         aria-label="V"
         transform="matrix(2.0000008,0,0,2.0000008,91.106772,49.331394)">
        <path
           inkscape:connector-curvature="0"
           id="path4809-1-6"
           d="m 283.85059,319.33334 -6.10157,-15.74804 h 2.25586 l 4.09278,11.44043 q 0.49414,1.375 0.82714,2.57812 0.36524,-1.28906 0.84864,-2.57812 l 4.2539,-11.44043 h 2.12696 l -6.16602,15.74804 z" />
      </g>
      <g
         id="text3871-4-2-0-5"
         style="font-size:22px;font-family:Arial;text-anchor:middle;display:inline;fill:#0000ff"
         aria-label="E"
         transform="matrix(2.0000008,0,0,2.0000008,563.39001,49.331394)">
        <path
           inkscape:connector-curvature="0"
           id="path4830-7-5-6-9"
           d="M 69.392578,319.33334 V 303.5853 h 11.386719 v 1.8584 h -9.302735 v 4.82324 h 8.711915 v 1.84765 h -8.711915 v 5.36036 h 9.667969 v 1.85839 z" />
      </g>
      <g
         id="text3783-2"
         style="font-size:22px;font-family:Arial;text-anchor:middle;display:inline;fill:#0000ff"
         aria-label="T"
         transform="matrix(2.0000008,0,0,2.0000008,34.695544,-65.001996)">
        <path
           inkscape:connector-curvature="0"
           id="path4708-9"
           d="m 73.979492,186 v -13.88965 h -5.188476 v -1.8584 h 12.482421 v 1.8584 h -5.20996 V 186 Z" />
      </g>
      <g
         id="text3749-2"
         style="font-size:22px;font-family:Arial;text-anchor:middle;display:inline;fill:#0000ff"
         aria-label="W"
         transform="matrix(1.6424323,0,0,2.0000008,-131.89692,68.331367)">
        <path
           inkscape:connector-curvature="0"
           id="path4642-0"
           d="M 219.07031,119.33334 214.8916,103.5853 h 2.1377 l 2.3955,10.32324 q 0.38672,1.62207 0.66602,3.22266 0.60156,-2.52442 0.70898,-2.91114 l 2.99707,-10.63476 h 2.51368 l 2.25586,7.9707 q 0.84863,2.96484 1.22461,5.5752 0.30078,-1.49317 0.78418,-3.42676 l 2.4707,-10.11914 h 2.09472 l -4.31835,15.74804 h -2.00879 l -3.31934,-11.99902 Q 225.0752,105.83041 225,105.48666 q -0.24707,1.08496 -0.46191,1.84766 l -3.34082,11.99902 z" />
      </g>
      <g
         id="text3871-4"
         style="font-size:22px;font-family:Arial;text-anchor:middle;display:inline;fill:#0000ff"
         aria-label="E"
         transform="matrix(2.0000008,0,0,2.0000008,140.05626,-331.66877)">
        <path
           inkscape:connector-curvature="0"
           id="path4830-7"
           d="M 69.392578,319.33334 V 303.5853 h 11.386719 v 1.8584 h -9.302735 v 4.82324 h 8.711915 v 1.84765 h -8.711915 v 5.36036 h 9.667969 v 1.85839 z" />
      </g>
      <g
         id="text3787-2-4"
         style="font-size:22px;font-family:Arial;text-anchor:middle;display:inline;fill:#0000ff"
         aria-label="N"
         transform="matrix(2.0000008,0,0,2.0000008,73.649715,-65.001996)">
        <path
           inkscape:connector-curvature="0"
           id="path4702-8-7"
           d="m 128.72656,186 v -15.74805 h 2.1377 l 8.27148,12.36426 v -12.36426 h 1.99805 V 186 h -2.1377 l -8.27148,-12.375 V 186 Z" />
      </g>
      <g
         id="text3783-2-0-7-3"
         style="font-size:22px;font-family:Arial;text-anchor:middle;display:inline;fill:#0000ff"
         aria-label="T"
         transform="matrix(2.0000008,0,0,2.0000008,265.47771,-25.31448)">
        <path
           inkscape:connector-curvature="0"
           id="path4708-9-6-5-0"
           d="M 64.42181,166.15625 V 152.2666 h -5.188476 v -1.8584 h 12.482421 v 1.8584 h -5.20996 v 13.88965 z" />
      </g>
      <g
         id="text3885-6-6"
         style="font-size:22px;font-family:Arial;text-anchor:middle;display:inline;fill:#0000ff"
         aria-label="V"
         transform="matrix(-1.9195878,0,0,-1.9183116,997.53694,889.46996)">
        <path
           inkscape:connector-curvature="0"
           id="path4809-1-4"
           d="m 286.68298,311.35641 5.46103,8.79051 -2.25581,-0.0147 c -1.64926,-1.91864 -4.29583,-6.25964 -4.29583,-6.25964 0,0 -2.47798,4.13322 -4.45208,6.19441 l -2.12691,-0.0138 5.53195,-8.71068 0.0557,-7.79531 2.11676,0.0138 z"
           sodipodi:nodetypes="cccccccccc" />
      </g>
      <g
         id="text3875-0-1-6"
         style="font-size:22px;font-family:Arial;text-anchor:middle;display:inline;fill:#0000ff"
         aria-label="F"
         transform="matrix(2.0000008,0,0,2.0000008,231.47599,-331.66877)">
        <path
           inkscape:connector-curvature="0"
           id="path4824-9-4-3"
           d="M 130.08008,319.33334 V 303.5853 h 10.62402 v 1.8584 h -8.54004 v 4.87695 h 7.39063 v 1.8584 h -7.39063 v 7.15429 z" />
      </g>
      <g
         id="text3723-5"
         style="font-size:22px;font-family:Arial;text-anchor:middle;display:inline;mix-blend-mode:normal;fill:#0000ff"
         aria-label="I"
         transform="matrix(2.0000008,0,0,2.0000008,225.09089,134.99808)">
        <path
           inkscape:connector-curvature="0"
           id="path4606-6"
           d="M 164.00098,86 V 70.251953 h 2.08398 V 86 Z" />
      </g>
      <g
         id="text3885-6-1"
         style="font-size:22px;font-family:Arial;text-anchor:middle;display:inline;fill:#0000ff"
         aria-label="V"
         transform="matrix(2.0000008,0,0,2.0000008,38.190079,-331.66877)">
        <path
           inkscape:connector-curvature="0"
           id="path4809-1-7"
           d="m 283.85059,319.33334 -6.10157,-15.74804 h 2.25586 l 4.09278,11.44043 q 0.49414,1.375 0.82714,2.57812 0.36524,-1.28906 0.84864,-2.57812 l 4.2539,-11.44043 h 2.12696 l -6.16602,15.74804 z" />
      </g>
      <g
         id="text3871-4-7"
         style="font-size:22px;font-family:Arial;text-anchor:middle;display:inline;fill:#0000ff"
         aria-label="E"
         transform="matrix(2.0000008,0,0,2.0000008,510.47328,-331.66877)">
        <path
           inkscape:connector-curvature="0"
           id="path4830-7-53"
           d="M 69.392578,319.33334 V 303.5853 h 11.386719 v 1.8584 h -9.302735 v 4.82324 h 8.711915 v 1.84765 h -8.711915 v 5.36036 h 9.667969 v 1.85839 z" />
      </g>
      <g
         id="text3885-6-6-7-6-6"
         style="font-size:22px;font-family:Arial;text-anchor:middle;display:inline;fill:#0000ff"
         aria-label="V"
         transform="matrix(-1.9195878,0,0,-1.9183116,1262.0637,889.27782)">
        <path
           inkscape:connector-curvature="0"
           id="path4809-1-4-1-1-4"
           d="m 287.17011,311.90116 4.89606,8.24981 h -2.17236 l -4.34473,-6.60166 -4.34473,6.60166 h -2.17236 l 4.89606,-8.24981 -4.89606,-8.55831 h 2.17236 l 4.34473,6.6204 4.34473,-6.6204 h 2.17236 z"
           sodipodi:nodetypes="ccccccccccccc" />
      </g>
      <path
         inkscape:connector-curvature="0"
         id="text3859-1-2"
         d="m 172.16596,402.50638 v 3.48612 c 5.0599,0.018 10.12084,-0.0512 15.18485,0.0298 2.19105,0.0732 4.59843,1.06718 5.38605,3.2747 1.02472,2.58366 -0.44674,5.86429 -3.18134,6.59967 -2.78069,0.77872 -5.69464,0.43006 -8.5449,0.50958 -2.94726,0.002 -5.8932,0.006 -8.84466,0.004 v 17.59166 h 4.16824 v -13.98572 l 12.13878,-0.34422 c 3.10386,-0.37032 6.44152,-1.69222 7.93874,-4.62656 2.09045,-3.95531 0.62223,-9.70197 -3.60752,-11.56955 -3.43538,-1.33058 -7.18242,-0.8864 -10.78746,-0.96976 h -9.85078 z"
         style="font-size:22px;font-family:Arial;text-anchor:middle;display:inline;fill:#0000ff;stroke-width:2"
         sodipodi:nodetypes="cccccccccccccccc" />
      <path
         sodipodi:nodetypes="cccccccccccccc"
         inkscape:connector-curvature="0"
         id="text3789-6-2"
         d="m 235.21739,402.50174 -11.25572,31.49681 h 4.11834 c 2.59628,-7.76208 5.07572,-15.04744 7.5577,-22.17231 0.6471,-2.02596 0.97754,-2.99104 1.64452,-5.05736 0.60553,1.71612 1.08111,2.92332 2.01409,5.5731 l 3.05944,8.72299 h -6.24679 l -1.14356,3.39408 h 8.58969 l 3.41816,9.5395 h 4.41844 l -11.99536,-31.49681 z"
         style="font-size:22px;font-family:Arial;text-anchor:middle;display:inline;fill:#0000ff;stroke-width:1.92933" />
      <g
         id="text3917-3-8"
         style="font-size:22px;font-family:Arial;text-anchor:middle;display:inline;fill:#0000ff"
         aria-label="S"
         transform="matrix(2.0000008,0,0,2.0000008,80.77599,-338.00208)">
        <path
           inkscape:connector-curvature="0"
           id="path4836-6-4"
           d="m 98.640625,380.94043 1.965825,-0.17188 q 0.13964,1.18165 0.64453,1.94434 0.51562,0.75195 1.58984,1.22461 1.07422,0.46191 2.41699,0.46191 1.19239,0 2.10547,-0.35449 0.91309,-0.35449 1.35352,-0.9668 0.45117,-0.62304 0.45117,-1.35351 0,-0.74121 -0.42969,-1.28906 -0.42969,-0.5586 -1.41797,-0.93457 -0.63379,-0.24707 -2.80371,-0.7627 -2.16992,-0.52637 -3.04004,-0.98828 -1.12793,-0.59082 -1.686521,-1.46094 -0.547852,-0.88086 -0.547852,-1.96582 0,-1.19238 0.676758,-2.22363 0.676755,-1.04199 1.976565,-1.5791 1.2998,-0.53711 2.88965,-0.53711 1.75097,0 3.083,0.56933 1.34278,0.5586 2.0625,1.6543 0.71973,1.0957 0.77344,2.48145 l -1.99805,0.15039 q -0.16113,-1.49317 -1.0957,-2.25586 -0.92383,-0.7627 -2.73926,-0.7627 -1.89062,0 -2.76074,0.69824 -0.85937,0.6875 -0.85937,1.66504 0,0.84864 0.6123,1.39649 0.60156,0.54785 3.13672,1.12793 2.5459,0.56933 3.49121,0.99902 1.375,0.63379 2.03027,1.61133 0.65528,0.9668 0.65528,2.23437 0,1.25684 -0.71973,2.37403 -0.71973,1.10644 -2.07324,1.72949 -1.34277,0.6123 -3.0293,0.6123 -2.13769,0 -3.58789,-0.62304 -1.43945,-0.62305 -2.2666,-1.86914 -0.816406,-1.25684 -0.859375,-2.83594 z" />
      </g>
      <g
         id="text3783-2-0-2-3"
         style="font-size:22px;font-family:Arial;text-anchor:middle;display:inline;fill:#0000ff"
         aria-label="T"
         transform="matrix(2.0000008,0,0,2.0000008,212.56099,101.68559)">
        <path
           inkscape:connector-curvature="0"
           id="path4708-9-6-3-7"
           d="M 64.42181,166.15625 V 152.2666 h -5.188476 v -1.8584 h 12.482421 v 1.8584 h -5.20996 v 13.88965 z" />
      </g>
      <g
         id="text3871-68"
         style="font-size:22px;font-family:Arial;text-anchor:middle;display:inline;fill:#0000ff"
         aria-label="E"
         transform="matrix(2.0000008,0,0,2.0000008,245.88968,-204.66874)">
        <path
           inkscape:connector-curvature="0"
           id="path4830-8"
           d="M 69.392578,319.33334 V 303.5853 h 11.386719 v 1.8584 h -9.302735 v 4.82324 h 8.711915 v 1.84765 h -8.711915 v 5.36036 h 9.667969 v 1.85839 z" />
      </g>
      <g
         id="text3865-1-8"
         style="font-size:22px;font-family:Arial;text-anchor:middle;display:inline;fill:#0000ff"
         aria-label="Ü"
         transform="matrix(2.0000008,0,0,2.0000008,-127.68629,-138.27056)">
        <path
           inkscape:connector-curvature="0"
           id="path4794-0-1"
           d="m 319.08203,270.25195 h 2.08399 v 9.09864 c 0,1.58268 -0.17904,2.83951 -0.53711,3.7705 -0.35807,0.93099 -1.00619,1.69011 -1.94434,2.27735 -0.93099,0.58007 -2.1556,0.87011 -3.67383,0.87011 -1.47526,0 -2.68197,-0.25423 -3.62012,-0.76269 -0.93815,-0.50847 -1.60774,-1.24252 -2.00878,-2.20215 -0.40105,-0.96679 -0.60157,-2.2845 -0.60157,-3.95312 v -9.09864 h 2.08399 v 9.08789 c 0,1.36784 0.12532,2.37761 0.37597,3.0293 0.25781,0.64453 0.69466,1.14225 1.31055,1.49316 0.62305,0.35091 1.38216,0.52637 2.27734,0.52637 1.53255,0 2.62468,-0.34733 3.27637,-1.04199 0.65169,-0.69466 0.97754,-2.03027 0.97754,-4.00684 z"
           sodipodi:nodetypes="ccsscsscsccsccsssc" />
      </g>
      <g
         id="text3735-5"
         style="font-size:22px;font-family:Arial;text-anchor:middle;display:inline;mix-blend-mode:normal;fill:#0000ff"
         aria-label="N"
         transform="matrix(2.0000008,0,0,2.0000008,-134.68366,261.99816)">
        <path
           inkscape:connector-curvature="0"
           id="path4624-9"
           d="M 338.72656,86 V 70.251953 h 2.1377 l 8.27148,12.364258 V 70.251953 h 1.99805 V 86 h -2.1377 L 340.72461,73.625 V 86 Z" />
      </g>
      <g
         id="text3723-6"
         style="font-size:22px;font-family:Arial;text-anchor:middle;display:inline;fill:#0000ff"
         aria-label="I"
         transform="matrix(2.0000008,0,0,2.0000008,278.00761,261.99816)">
        <path
           inkscape:connector-curvature="0"
           id="path4606-2"
           d="M 164.00098,86 V 70.251953 h 2.08398 V 86 Z" />
      </g>
      <g
         id="text3787-2-4-3"
         style="font-size:22px;font-family:Arial;text-anchor:middle;display:inline;fill:#0000ff"
         aria-label="N"
         transform="matrix(2.0000008,0,0,2.0000008,391.14998,61.998075)">
        <path
           inkscape:connector-curvature="0"
           id="path4702-8-7-1"
           d="m 128.72656,186 v -15.74805 h 2.1377 l 8.27148,12.36426 v -12.36426 h 1.99805 V 186 h -2.1377 l -8.27148,-12.375 V 186 Z" />
      </g>
      <g
         id="text3871-4-9-0"
         style="font-size:22px;font-family:Arial;text-anchor:middle;display:inline;fill:#0000ff"
         aria-label="E"
         transform="matrix(2.0000008,0,0,2.0000008,563.39001,-204.66874)">
        <path
           inkscape:connector-curvature="0"
           id="path4830-7-4-3"
           d="M 69.392578,319.33334 V 303.5853 h 11.386719 v 1.8584 h -9.302735 v 4.82324 h 8.711915 v 1.84765 h -8.711915 v 5.36036 h 9.667969 v 1.85839 z" />
      </g>
      <path
         inkscape:connector-curvature="0"
         id="text3819-9-7"
         d="m 184.77802,465.85049 c -3.69432,0 -6.70898,1.4464 -9.04476,4.3392 -2.3358,2.87882 -3.50424,6.86806 -3.50424,11.9689 0,2.69716 0.50128,5.2544 1.50232,7.67203 0.69818,1.68632 1.63078,3.11898 2.78706,4.30898 l 1.7052,-3.31468 c -1.61108,-2.12332 -2.41896,-4.98931 -2.41896,-8.60281 0,-4.6257 0.88142,-7.92412 2.64514,-9.89458 1.7757,-1.98442 3.8914,-2.97684 6.3463,-2.97684 1.42849,0 2.73676,0.35918 3.92906,1.0659 l 1.61582,-3.14022 c -1.68866,-0.94654 -3.54141,-1.42588 -5.56294,-1.42588 z m 8.15044,3.39332 -1.73616,3.37414 c 0.5728,0.75512 1.05302,1.62642 1.4335,2.6229 0.72696,1.85866 1.09038,4.0391 1.09038,6.5406 0,3.95488 -0.84626,7.00833 -2.5385,9.16047 -1.68036,2.15214 -3.82505,3.22792 -6.43492,3.22792 -1.50604,0 -2.86306,-0.36928 -4.07264,-1.1032 l -1.58912,3.08678 c 1.70734,0.99372 3.59876,1.49646 5.67898,1.49646 2.27619,0 4.39802,-0.62898 6.3644,-1.88672 1.9663,-1.27172 3.48596,-3.13714 4.5585,-5.59674 1.07251,-2.45956 1.60803,-5.24739 1.60803,-8.36381 0,-3.07448 -0.51178,-5.8211 -1.53667,-8.23874 -0.7111,-1.7071 -1.6565,-3.14334 -2.82578,-4.32006 z"
         style="font-size:22px;font-family:Arial;text-anchor:middle;display:inline;fill:#0000ff;stroke-width:1.80202"
         sodipodi:nodetypes="scssccscsccscccscsccscsscc" />
      <g
         id="text3787-2"
         style="font-size:22px;font-family:Arial;text-anchor:middle;display:inline;fill:#0000ff"
         aria-label="N"
         transform="matrix(2.0000008,0,0,2.0000008,-32.183663,125.4981)">
        <path
           inkscape:connector-curvature="0"
           id="path4702-8"
           d="m 128.72656,186 v -15.74805 h 2.1377 l 8.27148,12.36426 v -12.36426 h 1.99805 V 186 h -2.1377 l -8.27148,-12.375 V 186 Z" />
      </g>
      <g
         id="text3871-3"
         style="font-size:22px;font-family:Arial;text-anchor:middle;display:inline;fill:#0000ff"
         aria-label="E"
         transform="matrix(2.0000008,0,0,2.0000008,140.05626,-141.1687)">
        <path
           inkscape:connector-curvature="0"
           id="path4830-6"
           d="M 69.392578,319.33334 V 303.5853 h 11.386719 v 1.8584 h -9.302735 v 4.82324 h 8.711915 v 1.84765 h -8.711915 v 5.36036 h 9.667969 v 1.85839 z" />
      </g>
      <g
         id="text3917-3-8-6"
         style="font-size:22px;font-family:Arial;text-anchor:middle;display:inline;fill:#0000ff"
         aria-label="S"
         transform="matrix(2.0000008,0,0,2.0000008,133.69268,-274.50205)">
        <path
           inkscape:connector-curvature="0"
           id="path4836-6-4-9"
           d="m 98.640625,380.94043 1.965825,-0.17188 q 0.13964,1.18165 0.64453,1.94434 0.51562,0.75195 1.58984,1.22461 1.07422,0.46191 2.41699,0.46191 1.19239,0 2.10547,-0.35449 0.91309,-0.35449 1.35352,-0.9668 0.45117,-0.62304 0.45117,-1.35351 0,-0.74121 -0.42969,-1.28906 -0.42969,-0.5586 -1.41797,-0.93457 -0.63379,-0.24707 -2.80371,-0.7627 -2.16992,-0.52637 -3.04004,-0.98828 -1.12793,-0.59082 -1.686521,-1.46094 -0.547852,-0.88086 -0.547852,-1.96582 0,-1.19238 0.676758,-2.22363 0.676755,-1.04199 1.976565,-1.5791 1.2998,-0.53711 2.88965,-0.53711 1.75097,0 3.083,0.56933 1.34278,0.5586 2.0625,1.6543 0.71973,1.0957 0.77344,2.48145 l -1.99805,0.15039 q -0.16113,-1.49317 -1.0957,-2.25586 -0.92383,-0.7627 -2.73926,-0.7627 -1.89062,0 -2.76074,0.69824 -0.85937,0.6875 -0.85937,1.66504 0,0.84864 0.6123,1.39649 0.60156,0.54785 3.13672,1.12793 2.5459,0.56933 3.49121,0.99902 1.375,0.63379 2.03027,1.61133 0.65528,0.9668 0.65528,2.23437 0,1.25684 -0.71973,2.37403 -0.71973,1.10644 -2.07324,1.72949 -1.34277,0.6123 -3.0293,0.6123 -2.13769,0 -3.58789,-0.62304 -1.43945,-0.62305 -2.2666,-1.86914 -0.816406,-1.25684 -0.859375,-2.83594 z" />
      </g>
      <g
         id="text3723-3-7-4"
         style="font-size:22px;font-family:Arial;text-anchor:middle;display:inline;fill:#0000ff"
         aria-label="I"
         transform="matrix(2.0000008,0,0,2.0445094,66.340799,322.02089)">
        <path
           inkscape:connector-curvature="0"
           id="path4606-5-3-3"
           d="M 164.00098,86 V 70.251953 h 2.08398 V 86 Z" />
      </g>
      <g
         id="text3885-6-6-7"
         style="font-size:22px;font-family:Arial;text-anchor:middle;display:inline;fill:#0000ff"
         aria-label="V"
         transform="matrix(-1.9195878,0,0,-1.9183116,997.4801,1079.778)">
        <path
           inkscape:connector-curvature="0"
           id="path4809-1-4-1"
           d="m 287.17011,311.90116 4.89606,8.24981 h -2.17236 l -4.34473,-6.60166 -4.34473,6.60166 h -2.17236 l 4.89606,-8.24981 -4.89606,-8.55831 h 2.17236 l 4.34473,6.6204 4.34473,-6.6204 h 2.17236 z"
           sodipodi:nodetypes="ccccccccccccc" />
      </g>
      <g
         id="text3885-6-6-7-6"
         style="font-size:22px;font-family:Arial;text-anchor:middle;display:inline;fill:#0000ff"
         aria-label="V"
         transform="matrix(-1.9195878,0,0,-1.9183116,997.4801,1079.778)">
        <path
           inkscape:connector-curvature="0"
           id="path4809-1-4-1-1"
           d="m 287.17011,311.90116 4.89606,8.24981 h -2.17236 l -4.34473,-6.60166 -4.34473,6.60166 h -2.17236 l 4.89606,-8.24981 -4.89606,-8.55831 h 2.17236 l 4.34473,6.6204 4.34473,-6.6204 h 2.17236 z"
           sodipodi:nodetypes="ccccccccccccc" />
      </g>
      <g
         id="text3783-2-0-2-9-2"
         style="font-size:22px;font-family:Arial;text-anchor:middle;display:inline;fill:#0000ff"
         aria-label="T"
         transform="matrix(2.0000008,0,0,2.0000008,371.31115,165.18561)">
        <path
           inkscape:connector-curvature="0"
           id="path4708-9-6-3-2-9"
           d="M 64.42181,166.15625 V 152.2666 h -5.188476 v -1.8584 h 12.482421 v 1.8584 h -5.20996 v 13.88965 z" />
      </g>
      <g
         id="text3805-4-8"
         style="font-size:22px;font-family:Arial;text-anchor:middle;display:inline;mix-blend-mode:normal;fill:#0000ff"
         aria-label="H"
         transform="matrix(2.0000008,0,0,2.0000008,405.19844,58.831414)">
        <path
           inkscape:connector-curvature="0"
           id="path4711-5-4"
           d="m 68.8125,219.33333 v -15.74805 h 2.083984 v 6.4668 h 8.185547 v -6.4668 h 2.083985 v 15.74805 h -2.083985 v -7.42285 h -8.185547 v 7.42285 z" />
      </g>
      <g
         id="text3871-4-8"
         style="font-size:22px;font-family:Arial;text-anchor:middle;display:inline;fill:#0000ff"
         aria-label="E"
         transform="matrix(2.0000008,0,0,2.0000008,510.47328,-141.1687)">
        <path
           inkscape:connector-curvature="0"
           id="path4830-7-9"
           d="M 69.392578,319.33334 V 303.5853 h 11.386719 v 1.8584 h -9.302735 v 4.82324 h 8.711915 v 1.84765 h -8.711915 v 5.36036 h 9.667969 v 1.85839 z" />
      </g>
      <g
         id="text3871-4-9-09"
         style="font-size:22px;font-family:Arial;text-anchor:middle;display:inline;fill:#0000ff"
         aria-label="E"
         transform="matrix(2.0000008,0,0,2.0000008,563.39001,-141.1687)">
        <path
           inkscape:connector-curvature="0"
           id="path4830-7-4-2"
           d="M 69.392578,319.33334 V 303.5853 h 11.386719 v 1.8584 h -9.302735 v 4.82324 h 8.711915 v 1.84765 h -8.711915 v 5.36036 h 9.667969 v 1.85839 z" />
      </g>
      <g
         id="text3723-3"
         style="font-size:22px;font-family:Arial;text-anchor:middle;display:inline;fill:#0000ff"
         aria-label="I"
         transform="matrix(2.0000008,0,0,2.0445094,-145.32596,4.5206958)">
        <path
           inkscape:connector-curvature="0"
           id="path4606-5"
           d="M 164.00098,86 V 70.251953 h 2.08398 V 86 Z" />
      </g>
      <g
         id="text3783-2-0-7"
         style="font-size:22px;font-family:Arial;text-anchor:middle;display:inline;fill:#0000ff"
         aria-label="T"
         transform="matrix(2.0000008,0,0,2.0000008,106.72759,-152.31458)">
        <path
           inkscape:connector-curvature="0"
           id="path4708-9-6-5"
           d="M 64.42181,166.15625 V 152.2666 h -5.188476 v -1.8584 h 12.482421 v 1.8584 h -5.20996 v 13.88965 z" />
      </g>
      <g
         id="text3809-3"
         style="font-size:22px;font-family:Arial;text-anchor:middle;display:inline;fill:#0000ff"
         aria-label="L"
         transform="matrix(2.0000008,0,0,2.0000008,19.776984,-258.6688)">
        <path
           inkscape:connector-curvature="0"
           id="path4714-1"
           d="m 130.48828,219.33333 v -15.74805 h 2.08399 v 13.88965 h 7.75585 v 1.8584 z" />
      </g>
      <g
         id="text3723"
         style="font-size:22px;font-family:Arial;text-anchor:middle;display:inline;fill:#0000ff"
         aria-label="I"
         transform="matrix(2.0000008,0,0,2.0000008,13.424108,7.9979752)">
        <path
           inkscape:connector-curvature="0"
           id="path4606"
           d="M 164.00098,86 V 70.251953 h 2.08398 V 86 Z" />
      </g>
      <g
         id="text3725"
         style="font-size:22px;font-family:Arial;text-anchor:middle;display:inline;fill:#0000ff"
         aria-label="S"
         transform="matrix(2.0000008,0,0,2.0000008,6.609345,7.9979752)">
        <path
           inkscape:connector-curvature="0"
           id="path4609"
           d="m 188.64062,80.94043 1.96583,-0.171875 q 0.13964,1.18164 0.64453,1.944336 0.51562,0.751953 1.58984,1.224609 1.07422,0.461914 2.41699,0.461914 1.19239,0 2.10547,-0.354492 0.91309,-0.354492 1.35352,-0.966797 0.45117,-0.623047 0.45117,-1.353516 0,-0.741211 -0.42969,-1.289062 -0.42969,-0.558594 -1.41797,-0.93457 -0.63379,-0.247071 -2.80371,-0.762696 -2.16992,-0.526367 -3.04004,-0.988281 -1.12793,-0.59082 -1.68652,-1.460938 -0.54785,-0.880859 -0.54785,-1.96582 0,-1.192383 0.67676,-2.223633 0.67675,-1.041992 1.97656,-1.579101 1.2998,-0.53711 2.88965,-0.53711 1.75097,0 3.083,0.569336 1.34278,0.558594 2.0625,1.654297 0.71973,1.095703 0.77344,2.481446 l -1.99805,0.15039 q -0.16113,-1.493164 -1.0957,-2.255859 -0.92383,-0.762696 -2.73926,-0.762696 -1.89062,0 -2.76074,0.698243 -0.85937,0.6875 -0.85937,1.665039 0,0.848633 0.6123,1.396484 0.60156,0.547852 3.13672,1.12793 2.5459,0.569336 3.49121,0.999023 1.375,0.633789 2.03027,1.611328 0.65528,0.966797 0.65528,2.234375 0,1.256836 -0.71973,2.374024 -0.71973,1.106445 -2.07324,1.729492 -1.34277,0.612305 -3.0293,0.612305 -2.13769,0 -3.58789,-0.623047 -1.43945,-0.623047 -2.2666,-1.869141 -0.81641,-1.256836 -0.85938,-2.835937 z" />
      </g>
      <path
         sodipodi:nodetypes="cccccccccccccc"
         inkscape:connector-curvature="0"
         id="text3789-6-4-2"
         d="m 446.88432,148.50156 -11.25577,31.49686 h 4.11835 c 2.59628,-7.76205 5.07572,-15.04743 7.5577,-22.17231 0.64712,-2.02596 0.97754,-2.99104 1.64452,-5.05734 0.60554,1.71612 1.0811,2.92332 2.01408,5.57308 l 3.05944,8.72298 h -6.24678 l -1.14356,3.3941 h 8.58968 l 3.41816,9.53949 h 4.41845 l -11.99537,-31.49686 z"
         style="font-size:22px;font-family:Arial;text-anchor:middle;display:inline;fill:#0000ff;stroke-width:1.92933" />
      <g
         id="text3725-6"
         style="font-size:22px;font-family:Arial;text-anchor:middle;display:inline;fill:#0000ff"
         aria-label="S"
         transform="matrix(2.0000008,0,0,2.0000008,112.44273,7.9979752)">
        <path
           inkscape:connector-curvature="0"
           id="path4609-7"
           d="m 188.64062,80.94043 1.96583,-0.171875 q 0.13964,1.18164 0.64453,1.944336 0.51562,0.751953 1.58984,1.224609 1.07422,0.461914 2.41699,0.461914 1.19239,0 2.10547,-0.354492 0.91309,-0.354492 1.35352,-0.966797 0.45117,-0.623047 0.45117,-1.353516 0,-0.741211 -0.42969,-1.289062 -0.42969,-0.558594 -1.41797,-0.93457 -0.63379,-0.247071 -2.80371,-0.762696 -2.16992,-0.526367 -3.04004,-0.988281 -1.12793,-0.59082 -1.68652,-1.460938 -0.54785,-0.880859 -0.54785,-1.96582 0,-1.192383 0.67676,-2.223633 0.67675,-1.041992 1.97656,-1.579101 1.2998,-0.53711 2.88965,-0.53711 1.75097,0 3.083,0.569336 1.34278,0.558594 2.0625,1.654297 0.71973,1.095703 0.77344,2.481446 l -1.99805,0.15039 q -0.16113,-1.493164 -1.0957,-2.255859 -0.92383,-0.762696 -2.73926,-0.762696 -1.89062,0 -2.76074,0.698243 -0.85937,0.6875 -0.85937,1.665039 0,0.848633 0.6123,1.396484 0.60156,0.547852 3.13672,1.12793 2.5459,0.569336 3.49121,0.999023 1.375,0.633789 2.03027,1.611328 0.65528,0.966797 0.65528,2.234375 0,1.256836 -0.71973,2.374024 -0.71973,1.106445 -2.07324,1.729492 -1.34277,0.612305 -3.0293,0.612305 -2.13769,0 -3.58789,-0.623047 -1.43945,-0.623047 -2.2666,-1.869141 -0.81641,-1.256836 -0.85938,-2.835937 z" />
      </g>
      <path
         sodipodi:nodetypes="cccccccccccccc"
         inkscape:connector-curvature="0"
         id="text3789-6-4-2-6"
         d="M 552.71774,148.50156 541.462,179.99842 h 4.11834 c 2.59628,-7.76205 5.07572,-15.04743 7.5577,-22.17231 0.6471,-2.02596 0.97754,-2.99104 1.64452,-5.05734 0.60552,1.71612 1.0811,2.92332 2.01408,5.57308 l 3.05944,8.72298 h -6.24678 l -1.14356,3.3941 h 8.58968 l 3.41817,9.53949 h 4.41844 l -11.99537,-31.49686 z"
         style="font-size:22px;font-family:Arial;text-anchor:middle;display:inline;mix-blend-mode:normal;fill:#0000ff;stroke-width:1.92933" />
      <g
         id="text3803-7"
         style="font-size:22px;font-family:Arial;text-anchor:middle;display:inline;fill:#0000ff"
         aria-label="M"
         transform="matrix(2.0000008,0,0,2.0000008,-141.85288,-192.00211)">
        <path
           inkscape:connector-curvature="0"
           id="path4684-6"
           d="m 367.45898,186 v -15.74805 h 3.13672 l 3.72754,11.15039 q 0.51563,1.55762 0.75196,2.33106 0.26855,-0.85938 0.83789,-2.52442 l 3.7705,-10.95703 h 2.80371 V 186 h -2.00878 V 172.81934 L 375.90234,186 h -1.87988 l -4.55469,-13.40625 V 186 Z" />
      </g>
      <path
         inkscape:connector-curvature="0"
         id="text3859-1-2-5"
         d="m 648.41644,148.50622 v 3.4861 c 5.0599,0.018 10.12084,-0.0512 15.18487,0.0298 2.19104,0.0732 4.59842,1.06718 5.38604,3.2747 1.02472,2.58366 -0.44674,5.86428 -3.18134,6.59966 -2.78068,0.77872 -5.69465,0.43006 -8.54491,0.50958 -2.94726,0.002 -5.8932,0.006 -8.84466,0.004 v 17.59167 h 4.16824 V 166.016 l 12.13879,-0.34422 c 3.10386,-0.37032 6.44152,-1.69222 7.93874,-4.62656 2.09046,-3.9553 0.62224,-9.70196 -3.60752,-11.56954 -3.43538,-1.33058 -7.18243,-0.8864 -10.78747,-0.96976 h -9.85078 z"
         style="font-size:22px;font-family:Arial;text-anchor:middle;display:inline;fill:#0000ff;stroke-width:2"
         sodipodi:nodetypes="cccccccccccccccc" />
      <g
         id="text3803-7-8"
         style="font-size:22px;font-family:Arial;text-anchor:middle;display:inline;fill:#0000ff"
         aria-label="M"
         transform="matrix(2.0000008,0,0,2.0000008,-36.019506,-192.00211)">
        <path
           inkscape:connector-curvature="0"
           id="path4684-6-9"
           d="m 367.45898,186 v -15.74805 h 3.13672 l 3.72754,11.15039 q 0.51563,1.55762 0.75196,2.33106 0.26855,-0.85938 0.83789,-2.52442 l 3.7705,-10.95703 h 2.80371 V 186 h -2.00878 V 172.81934 L 375.90234,186 h -1.87988 l -4.55469,-13.40625 V 186 Z" />
      </g>
      <g
         id="text3805"
         style="font-size:22px;font-family:Arial;text-anchor:middle;display:inline;fill:#0000ff"
         aria-label="H"
         transform="matrix(2.0000008,0,0,2.0000008,34.781484,-68.168643)">
        <path
           inkscape:connector-curvature="0"
           id="path4711"
           d="m 68.8125,219.33333 v -15.74805 h 2.083984 v 6.4668 h 8.185547 v -6.4668 h 2.083985 v 15.74805 h -2.083985 v -7.42285 h -8.185547 v 7.42285 z" />
      </g>
      <path
         sodipodi:nodetypes="cccccccccccccc"
         inkscape:connector-curvature="0"
         id="text3789-6-9"
         d="m 235.21739,339.00172 -11.25572,31.49683 h 4.11834 c 2.59628,-7.76208 5.07572,-15.04745 7.55768,-22.17233 0.64712,-2.02596 0.97754,-2.99104 1.64452,-5.05734 0.60553,1.71612 1.08111,2.92332 2.01411,5.57308 l 3.05944,8.72298 h -6.24679 l -1.14356,3.3941 h 8.58967 l 3.41818,9.53951 h 4.41844 l -11.99536,-31.49683 z"
         style="font-size:22px;font-family:Arial;text-anchor:middle;display:inline;fill:#0000ff;stroke-width:1.92933" />
      <g
         id="text3821-5"
         style="font-size:22px;font-family:Arial;text-anchor:middle;display:inline;fill:#0000ff"
         aria-label="L"
         transform="matrix(2.0000008,0,0,2.0000008,-340.22324,-68.168643)">
        <path
           inkscape:connector-curvature="0"
           id="path4743-0"
           d="m 310.48828,219.33333 v -15.74805 h 2.08399 v 13.88965 h 7.75585 v 1.8584 z" />
      </g>
      <g
         id="text3875-0-6"
         style="font-size:22px;font-family:Arial;text-anchor:middle;display:inline;fill:#0000ff"
         aria-label="F"
         transform="matrix(2.0000008,0,0,2.0000008,72.725895,-268.16875)">
        <path
           inkscape:connector-curvature="0"
           id="path4824-9-5"
           d="M 130.08008,319.33334 V 303.5853 h 10.62402 v 1.8584 h -8.54004 v 4.87695 h 7.39063 v 1.8584 h -7.39063 v 7.15429 z" />
      </g>
      <g
         id="text3725-7"
         style="font-size:22px;font-family:Arial;text-anchor:middle;display:inline;fill:#0000ff"
         aria-label="S"
         transform="matrix(2.0000008,0,0,2.0000008,6.609345,198.49812)">
        <path
           inkscape:connector-curvature="0"
           id="path4609-8"
           d="m 188.64062,80.94043 1.96583,-0.171875 q 0.13964,1.18164 0.64453,1.944336 0.51562,0.751953 1.58984,1.224609 1.07422,0.461914 2.41699,0.461914 1.19239,0 2.10547,-0.354492 0.91309,-0.354492 1.35352,-0.966797 0.45117,-0.623047 0.45117,-1.353516 0,-0.741211 -0.42969,-1.289062 -0.42969,-0.558594 -1.41797,-0.93457 -0.63379,-0.247071 -2.80371,-0.762696 -2.16992,-0.526367 -3.04004,-0.988281 -1.12793,-0.59082 -1.68652,-1.460938 -0.54785,-0.880859 -0.54785,-1.96582 0,-1.192383 0.67676,-2.223633 0.67675,-1.041992 1.97656,-1.579101 1.2998,-0.53711 2.88965,-0.53711 1.75097,0 3.083,0.569336 1.34278,0.558594 2.0625,1.654297 0.71973,1.095703 0.77344,2.481446 l -1.99805,0.15039 q -0.16113,-1.493164 -1.0957,-2.255859 -0.92383,-0.762696 -2.73926,-0.762696 -1.89062,0 -2.76074,0.698243 -0.85937,0.6875 -0.85937,1.665039 0,0.848633 0.6123,1.396484 0.60156,0.547852 3.13672,1.12793 2.5459,0.569336 3.49121,0.999023 1.375,0.633789 2.03027,1.611328 0.65528,0.966797 0.65528,2.234375 0,1.256836 -0.71973,2.374024 -0.71973,1.106445 -2.07324,1.729492 -1.34277,0.612305 -3.0293,0.612305 -2.13769,0 -3.58789,-0.623047 -1.43945,-0.623047 -2.2666,-1.869141 -0.81641,-1.256836 -0.85938,-2.835937 z" />
      </g>
      <g
         id="text3783-2-0-7-3-0"
         style="font-size:22px;font-family:Arial;text-anchor:middle;display:inline;fill:#0000ff"
         aria-label="T"
         transform="matrix(2.0000008,0,0,2.0000008,318.39443,38.185559)">
        <path
           inkscape:connector-curvature="0"
           id="path4708-9-6-5-0-4"
           d="M 64.42181,166.15625 V 152.2666 h -5.188476 v -1.8584 h 12.482421 v 1.8584 h -5.20996 v 13.88965 z" />
      </g>
      <g
         id="text3871-4-9"
         style="font-size:22px;font-family:Arial;text-anchor:middle;display:inline;fill:#0000ff"
         aria-label="E"
         transform="matrix(2.0000008,0,0,2.0000008,351.72312,-268.16875)">
        <path
           inkscape:connector-curvature="0"
           id="path4830-7-4"
           d="M 69.392578,319.33334 V 303.5853 h 11.386719 v 1.8584 h -9.302735 v 4.82324 h 8.711915 v 1.84765 h -8.711915 v 5.36036 h 9.667969 v 1.85839 z" />
      </g>
      <g
         id="text3735-1"
         style="font-size:22px;font-family:Arial;text-anchor:middle;display:inline;mix-blend-mode:normal;fill:#0000ff"
         aria-label="N"
         transform="matrix(2.0000008,0,0,2.0000008,-134.68366,198.49812)">
        <path
           inkscape:connector-curvature="0"
           id="path4624-1"
           d="M 338.72656,86 V 70.251953 h 2.1377 l 8.27148,12.364258 V 70.251953 h 1.99805 V 86 h -2.1377 L 340.72461,73.625 V 86 Z" />
      </g>
      <g
         id="text3875-0-1-6-5"
         style="font-size:22px;font-family:Arial;text-anchor:middle;display:inline;fill:#0000ff"
         aria-label="F"
         transform="matrix(2.0000008,0,0,2.0000008,337.30943,-268.16875)">
        <path
           inkscape:connector-curvature="0"
           id="path4824-9-4-3-9"
           d="M 130.08008,319.33334 V 303.5853 h 10.62402 v 1.8584 h -8.54004 v 4.87695 h 7.39063 v 1.8584 h -7.39063 v 7.15429 z" />
      </g>
      <g
         id="text3783-2-0-2-3-8"
         style="font-size:22px;font-family:Arial;text-anchor:middle;display:inline;fill:#0000ff"
         aria-label="T"
         transform="matrix(2.0000008,0,0,2.0000008,530.06133,38.185559)">
        <path
           inkscape:connector-curvature="0"
           id="path4708-9-6-3-7-8"
           d="M 64.42181,166.15625 V 152.2666 h -5.188476 v -1.8584 h 12.482421 v 1.8584 h -5.20996 v 13.88965 z" />
      </g>
      <path
         inkscape:connector-curvature="0"
         id="text3819-9-7-8-3"
         d="m 713.94523,338.85046 c -3.69433,0 -6.70899,1.44638 -9.04477,4.3392 -2.3358,2.87882 -3.50424,6.86806 -3.50424,11.9689 0,2.69716 0.50128,5.25438 1.50234,7.67203 0.69816,1.68632 1.63076,3.11898 2.78706,4.30898 l 1.70518,-3.31468 c -1.61108,-2.12333 -2.41894,-4.98931 -2.41894,-8.60281 0,-4.6257 0.88142,-7.92412 2.64512,-9.8946 1.77572,-1.98442 3.8914,-2.97682 6.34633,-2.97682 1.4285,0 2.73676,0.35916 3.92906,1.0659 l 1.61582,-3.14022 c -1.68866,-0.94656 -3.5414,-1.42588 -5.56296,-1.42588 z m 8.15044,3.39332 -1.73616,3.37414 c 0.5728,0.7551 1.05302,1.62642 1.4335,2.6229 0.72696,1.85866 1.09038,4.03908 1.09038,6.5406 0,3.95488 -0.84626,7.0083 -2.5385,9.16047 -1.68036,2.15212 -3.82504,3.22792 -6.43492,3.22792 -1.50605,0 -2.86307,-0.36928 -4.07265,-1.1032 l -1.58912,3.08676 c 1.70734,0.99372 3.59876,1.49646 5.67899,1.49646 2.2762,0 4.39802,-0.62898 6.3644,-1.88672 1.9663,-1.27172 3.48596,-3.13714 4.5585,-5.59674 1.07252,-2.45957 1.60804,-5.24739 1.60804,-8.36381 0,-3.07448 -0.51178,-5.8211 -1.53668,-8.23874 -0.7111,-1.7071 -1.6565,-3.14334 -2.82578,-4.32004 z"
         style="font-size:22px;font-family:Arial;text-anchor:middle;display:inline;fill:#0000ff;stroke-width:1.80202"
         sodipodi:nodetypes="scssccscsccscccscsccscsscc" />
      <g
         id="text3875-0"
         style="font-size:22px;font-family:Arial;text-anchor:middle;display:inline;fill:#0000ff"
         aria-label="F"
         transform="matrix(2.0000008,0,0,2.0000008,-86.024178,-77.668669)">
        <path
           inkscape:connector-curvature="0"
           id="path4824-9"
           d="M 130.08008,319.33334 V 303.5853 h 10.62402 v 1.8584 h -8.54004 v 4.87695 h 7.39063 v 1.8584 h -7.39063 v 7.15429 z" />
      </g>
      <path
         inkscape:connector-curvature="0"
         id="text3819-9-7-7"
         d="m 237.69474,529.35051 c -3.69431,0 -6.70899,1.4464 -9.04477,4.3392 -2.3358,2.87882 -3.50424,6.86807 -3.50424,11.96891 0,2.69716 0.50128,5.25438 1.50232,7.67202 0.69818,1.68632 1.63078,3.11898 2.78706,4.30898 l 1.7052,-3.31468 c -1.61108,-2.12332 -2.41896,-4.9893 -2.41896,-8.6028 0,-4.6257 0.88142,-7.92412 2.64514,-9.89459 1.7757,-1.98442 3.89142,-2.97684 6.34631,-2.97684 1.4285,0 2.73676,0.35918 3.92906,1.0659 l 1.61582,-3.14022 c -1.68866,-0.94654 -3.5414,-1.42588 -5.56294,-1.42588 z m 8.15044,3.39332 -1.73616,3.37414 c 0.5728,0.7551 1.05302,1.62643 1.4335,2.62291 0.72696,1.85866 1.09038,4.03908 1.09038,6.5406 0,3.95488 -0.84626,7.0083 -2.5385,9.16046 -1.68036,2.15212 -3.82504,3.22794 -6.43492,3.22794 -1.50603,0 -2.86305,-0.36928 -4.07265,-1.1032 l -1.58912,3.08676 c 1.70734,0.99374 3.59878,1.49646 5.67899,1.49646 2.2762,0 4.39802,-0.62898 6.3644,-1.88672 1.9663,-1.2717 3.48596,-3.13714 4.5585,-5.59672 1.07252,-2.45956 1.60804,-5.2474 1.60804,-8.3638 0,-3.07448 -0.51178,-5.8211 -1.53668,-8.23875 -0.7111,-1.7071 -1.6565,-3.14334 -2.82578,-4.32008 z"
         style="font-size:22px;font-family:Arial;text-anchor:middle;display:inline;fill:#0000ff;stroke-width:1.80202"
         sodipodi:nodetypes="scssccscsccscccscsccscsscc" />
      <g
         id="text3865-1"
         style="font-size:22px;font-family:Arial;text-anchor:middle;display:inline;fill:#0000ff"
         aria-label="Ü"
         transform="matrix(2.0000008,0,0,2.0000008,-339.35312,-11.270505)">
        <path
           inkscape:connector-curvature="0"
           id="path4794-0"
           d="m 319.08203,270.25195 h 2.08399 v 9.09864 c 0,1.58268 -0.17904,2.83951 -0.53711,3.7705 -0.35807,0.93099 -1.00619,1.69011 -1.94434,2.27735 -0.93099,0.58007 -2.1556,0.87011 -3.67383,0.87011 -1.47526,0 -2.68197,-0.25423 -3.62012,-0.76269 -0.93815,-0.50847 -1.60774,-1.24252 -2.00878,-2.20215 -0.40105,-0.96679 -0.60157,-2.2845 -0.60157,-3.95312 v -9.09864 h 2.08399 v 9.08789 c 0,1.36784 0.12532,2.37761 0.37597,3.0293 0.25781,0.64453 0.69466,1.14225 1.31055,1.49316 0.62305,0.35091 1.38216,0.52637 2.27734,0.52637 1.53255,0 2.62468,-0.34733 3.27637,-1.04199 0.65169,-0.69466 0.97754,-2.03027 0.97754,-4.00684 z"
           sodipodi:nodetypes="ccsscsscsccsccsssc" />
      </g>
      <g
         id="text3875-0-1"
         style="font-size:22px;font-family:Arial;text-anchor:middle;display:inline;fill:#0000ff"
         aria-label="F"
         transform="matrix(2.0000008,0,0,2.0000008,125.64258,-77.668669)">
        <path
           inkscape:connector-curvature="0"
           id="path4824-9-4"
           d="M 130.08008,319.33334 V 303.5853 h 10.62402 v 1.8584 h -8.54004 v 4.87695 h 7.39063 v 1.8584 h -7.39063 v 7.15429 z" />
      </g>
      <g
         id="text3723-3-1"
         style="font-size:22px;font-family:Arial;text-anchor:middle;display:inline;fill:#0000ff"
         aria-label="I"
         transform="matrix(2.0000008,0,0,2.0445094,119.25749,385.52091)">
        <path
           inkscape:connector-curvature="0"
           id="path4606-5-5"
           d="M 164.00098,86 V 70.251953 h 2.08398 V 86 Z" />
      </g>
      <g
         id="text3885-6-3"
         style="font-size:22px;font-family:Arial;text-anchor:middle;display:inline;fill:#0000ff"
         aria-label="V"
         transform="matrix(2.0000008,0,0,2.0000008,-67.643303,-77.668669)">
        <path
           inkscape:connector-curvature="0"
           id="path4809-1-9"
           d="m 283.85059,319.33334 -6.10157,-15.74804 h 2.25586 l 4.09278,11.44043 q 0.49414,1.375 0.82714,2.57812 0.36524,-1.28906 0.84864,-2.57812 l 4.2539,-11.44043 h 2.12696 l -6.16602,15.74804 z" />
      </g>
      <g
         id="text3871-4-2-0-9-8"
         style="font-size:22px;font-family:Arial;text-anchor:middle;display:inline;mix-blend-mode:normal;fill:#0000ff"
         aria-label="E"
         transform="matrix(2.0000008,0,0,2.0000008,404.63984,-77.668669)">
        <path
           inkscape:connector-curvature="0"
           id="path4830-7-5-6-4-1"
           d="M 69.392578,319.33334 V 303.5853 h 11.386719 v 1.8584 h -9.302735 v 4.82324 h 8.711915 v 1.84765 h -8.711915 v 5.36036 h 9.667969 v 1.85839 z" />
      </g>
      <g
         id="text3783-2-0-2-9-7"
         style="font-size:22px;font-family:Arial;text-anchor:middle;display:inline;fill:#0000ff"
         aria-label="T"
         transform="matrix(2.0000008,0,0,2.0000008,477.14459,228.68565)">
        <path
           inkscape:connector-curvature="0"
           id="path4708-9-6-3-2-8"
           d="M 64.42181,166.15625 V 152.2666 h -5.188476 v -1.8584 h 12.482421 v 1.8584 h -5.20996 v 13.88965 z" />
      </g>
      <g
         id="text3749-2-6"
         style="font-size:22px;font-family:Arial;text-anchor:middle;display:inline;fill:#0000ff"
         aria-label="W"
         transform="matrix(1.6424323,0,0,2.0000008,291.43666,322.33149)">
        <path
           inkscape:connector-curvature="0"
           id="path4642-0-4"
           d="M 219.07031,119.33334 214.8916,103.5853 h 2.1377 l 2.3955,10.32324 q 0.38672,1.62207 0.66602,3.22266 0.60156,-2.52442 0.70898,-2.91114 l 2.99707,-10.63476 h 2.51368 l 2.25586,7.9707 q 0.84863,2.96484 1.22461,5.5752 0.30078,-1.49317 0.78418,-3.42676 l 2.4707,-10.11914 h 2.09472 l -4.31835,15.74804 h -2.00879 l -3.31934,-11.99902 Q 225.0752,105.83041 225,105.48666 q -0.24707,1.08496 -0.46191,1.84766 l -3.34082,11.99902 z" />
      </g>
      <path
         inkscape:connector-curvature="0"
         id="text3819-9-7-8-5"
         d="m 713.94523,529.35051 c -3.69433,0 -6.70899,1.4464 -9.04477,4.3392 -2.3358,2.87882 -3.50424,6.86807 -3.50424,11.96891 0,2.69716 0.50128,5.25438 1.50234,7.67202 0.69816,1.68632 1.63076,3.11898 2.78706,4.30898 l 1.70518,-3.31468 c -1.61108,-2.12332 -2.41894,-4.9893 -2.41894,-8.6028 0,-4.6257 0.88142,-7.92412 2.64512,-9.89459 1.77572,-1.98442 3.8914,-2.97684 6.34633,-2.97684 1.4285,0 2.73676,0.35918 3.92906,1.0659 l 1.61582,-3.14022 c -1.68866,-0.94654 -3.5414,-1.42588 -5.56296,-1.42588 z m 8.15044,3.39332 -1.73616,3.37414 c 0.5728,0.7551 1.05302,1.62643 1.4335,2.62291 0.72696,1.85866 1.09038,4.03908 1.09038,6.5406 0,3.95488 -0.84626,7.0083 -2.5385,9.16046 -1.68036,2.15212 -3.82504,3.22794 -6.43492,3.22794 -1.50605,0 -2.86307,-0.36928 -4.07265,-1.1032 l -1.58912,3.08676 c 1.70734,0.99374 3.59876,1.49646 5.67899,1.49646 2.2762,0 4.39802,-0.62898 6.3644,-1.88672 1.9663,-1.2717 3.48596,-3.13714 4.5585,-5.59672 1.07252,-2.45956 1.60804,-5.2474 1.60804,-8.3638 0,-3.07448 -0.51178,-5.8211 -1.53668,-8.23875 -0.7111,-1.7071 -1.6565,-3.14334 -2.82578,-4.32008 z"
         style="font-size:22px;font-family:Arial;text-anchor:middle;display:inline;fill:#0000ff;stroke-width:1.80202"
         sodipodi:nodetypes="scssccscsccscccscsccscsscc" />
      <path
         sodipodi:nodetypes="cccccccccccccc"
         inkscape:connector-curvature="0"
         id="text3789-6"
         d="m 182.30068,212.00166 -11.25572,31.4968 h 4.11834 c 2.59628,-7.76205 5.07572,-15.04743 7.5577,-22.17229 0.6471,-2.02596 0.97754,-2.99104 1.64452,-5.05734 0.60552,1.71612 1.0811,2.92332 2.01407,5.57308 l 3.05945,8.72298 h -6.24678 l -1.14356,3.39408 h 8.58968 l 3.41816,9.53949 h 4.41843 l -11.99536,-31.4968 z"
         style="font-size:22px;font-family:Arial;text-anchor:middle;display:inline;fill:#0000ff;stroke-width:1.92933" />
      <path
         inkscape:connector-curvature="0"
         id="text3813-9"
         d="m 290.31436,210.4984 c -2.87891,0 -5.48609,0.66578 -7.82073,1.9978 -2.3203,1.33205 -4.11082,3.27241 -5.37124,5.82187 -1.26042,2.5495 -1.89032,5.37824 -1.89032,8.4863 0,3.1224 0.62356,5.93004 1.86966,8.42222 0.78016,1.5426 1.76446,2.86969 2.95072,3.98427 l 2.08876,-3.46131 c -1.74038,-2.16108 -2.61172,-5.14244 -2.61172,-8.94516 0,-4.22526 1.02346,-7.39692 3.07164,-9.51672 2.04818,-2.1341 4.62686,-3.20188 7.73493,-3.20188 1.56224,0 3.0064,0.30046 4.3336,0.90022 l 1.9358,-3.20811 c -1.92286,-0.84906 -4.01812,-1.2795 -6.2911,-1.2795 z m 9.4661,3.18741 -2.06086,3.4158 c 0.8262,0.84142 1.50336,1.84018 2.02674,3.00034 0.8737,1.90492 1.31052,4.13226 1.31052,6.68176 0,4.48306 -1.22498,7.84148 -3.6742,10.07586 -5.95106,-3.00758 -3.6566,-1.91308 -5.95106,-3.00758 l -1.00976,3.02928 14.30818,8.12045 1.22474,-2.90008 -5.34954,-2.92178 c 1.58982,-1.53256 2.77894,-3.33047 3.5667,-5.39297 0.78776,-2.07682 1.18132,-4.41074 1.18132,-7.00316 0,-3.12242 -0.61618,-5.92268 -1.84796,-8.40052 -0.92134,-1.88606 -2.16364,-3.45118 -3.72482,-4.6974 z"
         style="font-size:22px;font-family:Arial;text-anchor:middle;display:inline;fill:#0000ff;stroke-width:2"
         sodipodi:nodetypes="scsscccscsccscccscccccccscc" />
      <g
         id="text3865-1-5"
         style="font-size:22px;font-family:Arial;text-anchor:middle;display:inline;fill:#0000ff"
         aria-label="Ü"
         transform="matrix(2.0000008,0,0,2.0000008,-286.43639,-328.77067)">
        <path
           inkscape:connector-curvature="0"
           id="path4794-0-5"
           d="m 319.08203,270.25195 h 2.08399 v 9.09864 c 0,1.58268 -0.17904,2.83951 -0.53711,3.7705 -0.35807,0.93099 -1.00619,1.69011 -1.94434,2.27735 -0.93099,0.58007 -2.1556,0.87011 -3.67383,0.87011 -1.47526,0 -2.68197,-0.25423 -3.62012,-0.76269 -0.93815,-0.50847 -1.60774,-1.24252 -2.00878,-2.20215 -0.40105,-0.96679 -0.60157,-2.2845 -0.60157,-3.95312 v -9.09864 h 2.08399 v 9.08789 c 0,1.36784 0.12532,2.37761 0.37597,3.0293 0.25781,0.64453 0.69466,1.14225 1.31055,1.49316 0.62305,0.35091 1.38216,0.52637 2.27734,0.52637 1.53255,0 2.62468,-0.34733 3.27637,-1.04199 0.65169,-0.69466 0.97754,-2.03027 0.97754,-4.00684 z"
           sodipodi:nodetypes="ccsscsscsccsccsssc" />
      </g>
      <path
         sodipodi:nodetypes="cccccccccccccc"
         inkscape:connector-curvature="0"
         id="text3789-6-4"
         d="m 393.96758,212.00164 -11.25575,31.49684 h 4.11834 c 2.59629,-7.76205 5.07573,-15.04743 7.55771,-22.17229 0.6471,-2.02596 0.97754,-2.99104 1.64452,-5.05734 0.60552,1.71612 1.0811,2.92332 2.01408,5.57308 l 3.05944,8.72298 h -6.24678 l -1.14356,3.39408 h 8.58968 l 3.41816,9.53949 h 4.41844 L 398.1465,212.00164 Z"
         style="font-size:22px;font-family:Arial;text-anchor:middle;display:inline;fill:#0000ff;stroke-width:1.92933" />
      <g
         id="text3783-2-0-7-36"
         style="font-size:22px;font-family:Arial;text-anchor:middle;display:inline;fill:#0000ff"
         aria-label="T"
         transform="matrix(2.0000008,0,0,2.0000008,371.31115,-88.81451)">
        <path
           inkscape:connector-curvature="0"
           id="path4708-9-6-5-5"
           d="M 64.42181,166.15625 V 152.2666 h -5.188476 v -1.8584 h 12.482421 v 1.8584 h -5.20996 v 13.88965 z" />
      </g>
      <g
         id="text3871-4-9-3"
         style="font-size:22px;font-family:Arial;text-anchor:middle;display:inline;mix-blend-mode:normal;fill:#0000ff"
         aria-label="E"
         transform="matrix(2.0000008,0,0,2.0000008,404.63984,-395.16884)">
        <path
           inkscape:connector-curvature="0"
           id="path4830-7-4-8"
           d="M 69.392578,319.33334 V 303.5853 h 11.386719 v 1.8584 h -9.302735 v 4.82324 h 8.711915 v 1.84765 h -8.711915 v 5.36036 h 9.667969 v 1.85839 z" />
      </g>
      <path
         inkscape:connector-curvature="0"
         id="text3859-4-3"
         d="m 594.21448,212.0063 v 3.48611 c 5.0599,0.018 10.12084,-0.0512 15.18486,0.0298 2.19104,0.0732 4.59843,1.06718 5.38605,3.2747 1.02472,2.58366 -0.44674,5.86428 -3.18135,6.59964 -2.78068,0.77872 -5.69464,0.43006 -8.5449,0.50958 -2.94726,0.002 -5.8932,0.006 -8.84466,0.004 v 17.59167 h 4.16824 v -14.10429 h 7.51312 c 0,-0.004 5.5629,10.00079 8.18825,14.10423 h 5.24308 l -8.13967,-14.10423 c 3.10387,-0.3703 5.77553,-1.91788 7.27275,-4.85222 2.09046,-3.95528 0.62224,-9.70194 -3.60752,-11.56952 -3.43539,-1.33059 -7.18243,-0.88641 -10.78747,-0.96977 h -9.85078 z"
         style="font-size:22px;font-family:Arial;text-anchor:middle;display:inline;fill:#0000ff;stroke-width:2"
         sodipodi:nodetypes="ccccccccccccccccccc" />
      <path
         inkscape:connector-curvature="0"
         id="text3761-9"
         d="m 647.99058,212.00164 v 20.10315 h 4.16822 v -16.38554 h 6.61664 c 2.47788,0 4.27579,0.2142 5.39297,0.64388 1.54688,0.60156 2.85732,1.79066 3.93154,3.56672 1.08854,1.7617 1.63298,4.28976 1.63298,7.58402 0,2.37758 -0.2796,4.40444 -0.8382,6.08024 -0.54426,1.66146 -1.31028,2.98562 -2.29856,3.97391 -0.70182,0.70184 -1.6472,1.24626 -2.836,1.63298 -1.17448,0.38672 -2.80041,0.57982 -4.87723,0.57982 h -6.72414 v -0.002 h -4.16822 v 3.71966 h 11.36572 c 1.90494,0 3.58785,-0.1794 5.04879,-0.53742 1.47526,-0.35808 2.72872,-0.8814 3.75998,-1.5689 1.04556,-0.70184 2.00468,-1.65356 2.87838,-2.85668 0.8737,-1.21745 1.5901,-2.75053 2.1487,-4.59819 0.5586,-1.84764 0.8382,-3.96736 0.8382,-6.3593 0,-2.80728 -0.41572,-5.29946 -1.24644,-7.47652 -0.81642,-2.1914 -2.05512,-3.98828 -3.71658,-5.39192 -1.27474,-1.08854 -2.81518,-1.84082 -4.61986,-2.25621 -1.28906,-0.30076 -3.15769,-0.45164 -5.60691,-0.45164 z"
         style="font-size:22px;font-family:Arial;text-anchor:middle;display:inline;fill:#0000ff;stroke-width:2" />
      <g
         id="text3791-7-0-0-7"
         style="font-size:22px;font-family:Arial;text-anchor:middle;display:inline;fill:#0000ff"
         aria-label="C"
         transform="matrix(2.0000008,0,0,2.0000008,322.18647,-128.50203)">
        <path
           inkscape:connector-curvature="0"
           id="path4696-9-9-4-7"
           d="m 199.98437,180.47852 2.08399,0.52636 c -0.43685,1.71159 -1.22461,3.01856 -2.36328,3.9209 -1.13151,0.89518 -2.51726,1.34277 -4.15723,1.34277 -1.69727,0 -3.07943,-0.34375 -4.14648,-1.03125 -1.0599,-0.69466 -1.4518,-1.69481 -1.72927,-3.00781 v -8.50781 c 0.27747,-1.29169 0.93077,-2.15202 2.08376,-2.78223 1.16015,-0.63737 2.43489,-0.95605 3.82422,-0.95605 1.57552,0 2.90039,0.40104 3.97461,1.20312 1.07422,0.80209 1.82259,1.93002 2.24511,3.38379 l -2.05175,0.4834 c -0.36523,-1.14583 -0.89518,-1.98014 -1.58985,-2.50293 -0.69466,-0.52279 -1.56836,-0.78418 -2.62109,-0.78418 -1.21029,0 -2.22363,0.29004 -3.04004,0.87012 -0.80925,0.58008 -0.85378,2.3418 -0.85378,2.3418 v 6.53125 c 0,0 0.23431,1.74023 1.05788,2.23437 0.82357,0.49414 1.71517,0.74121 2.67481,0.74121 1.16731,0 2.15559,-0.33659 2.96484,-1.00976 0.80925,-0.67318 1.3571,-1.6722 1.64355,-2.99707 z"
           sodipodi:nodetypes="cccsccccssccsscccsssc" />
      </g>
      <g
         id="text3783-2-0"
         style="font-size:22px;font-family:Arial;text-anchor:middle;display:inline;fill:#0000ff"
         aria-label="T"
         transform="matrix(2.0000008,0,0,2.0000008,53.8109,419.18579)">
        <path
           inkscape:connector-curvature="0"
           id="path4708-9-6"
           d="M 64.42181,166.15625 V 152.2666 h -5.188476 v -1.8584 h 12.482421 v 1.8584 h -5.20996 v 13.88965 z" />
      </g>
      <g
         id="text3783-2-0-2"
         style="font-size:22px;font-family:Arial;text-anchor:middle;display:inline;fill:#0000ff"
         aria-label="T"
         transform="matrix(2.0000008,0,0,2.0000008,53.8109,419.18579)">
        <path
           inkscape:connector-curvature="0"
           id="path4708-9-6-3"
           d="M 64.42181,166.15625 V 152.2666 h -5.188476 v -1.8584 h 12.482421 v 1.8584 h -5.20996 v 13.88965 z" />
      </g>
      <g
         id="text3871-2"
         style="font-size:22px;font-family:Arial;text-anchor:middle;display:inline;fill:#0000ff"
         aria-label="E"
         transform="matrix(2.0000008,0,0,2.0000008,87.139577,112.83148)">
        <path
           inkscape:connector-curvature="0"
           id="path4830-9"
           d="M 69.392578,319.33334 V 303.5853 h 11.386719 v 1.8584 h -9.302735 v 4.82324 h 8.711915 v 1.84765 h -8.711915 v 5.36036 h 9.667969 v 1.85839 z" />
      </g>
      <g
         id="text3787-2-2"
         style="font-size:22px;font-family:Arial;text-anchor:middle;display:inline;fill:#0000ff"
         aria-label="N"
         transform="matrix(2.0000008,0,0,2.0000008,20.733024,379.49827)">
        <path
           inkscape:connector-curvature="0"
           id="path4702-8-0"
           d="m 128.72656,186 v -15.74805 h 2.1377 l 8.27148,12.36426 v -12.36426 h 1.99805 V 186 h -2.1377 l -8.27148,-12.375 V 186 Z" />
      </g>
      <g
         id="text3917-3-4"
         style="font-size:22px;font-family:Arial;text-anchor:middle;display:inline;fill:#0000ff"
         aria-label="S"
         transform="matrix(2.0000008,0,0,2.0000008,130.73677,-17.398037)">
        <path
           inkscape:connector-curvature="0"
           id="path4836-6-7"
           d="m 100.11859,379.38851 1.96582,-0.17188 q 0.13964,1.18165 0.64453,1.94434 0.51562,0.75195 1.58984,1.22461 1.07422,0.46191 2.41699,0.46191 1.19239,0 2.10547,-0.35449 0.91309,-0.35449 1.35352,-0.9668 0.45117,-0.62304 0.45117,-1.35351 0,-0.74121 -0.42969,-1.28906 -0.42969,-0.5586 -1.41797,-0.93457 -0.63379,-0.24707 -2.80371,-0.7627 -2.16992,-0.52637 -3.04004,-0.98828 -1.12793,-0.59082 -1.68652,-1.46094 -0.54785,-0.88086 -0.54785,-1.96582 0,-1.19238 0.67676,-2.22363 0.67675,-1.04199 1.97656,-1.5791 1.2998,-0.53711 2.88965,-0.53711 1.75097,0 3.083,0.56933 1.34278,0.5586 2.0625,1.6543 0.71973,1.0957 0.77344,2.48145 l -1.99805,0.15039 q -0.16113,-1.49317 -1.0957,-2.25586 -0.92383,-0.7627 -2.73926,-0.7627 -1.89062,0 -2.76074,0.69824 -0.85937,0.6875 -0.85937,1.66504 0,0.84864 0.6123,1.39649 0.60156,0.54785 3.13672,1.12793 2.5459,0.56933 3.49121,0.99902 1.375,0.63379 2.03027,1.61133 0.65528,0.9668 0.65528,2.23437 0,1.25684 -0.71973,2.37403 -0.71973,1.10644 -2.07324,1.72949 -1.34277,0.6123 -3.0293,0.6123 -2.13769,0 -3.58789,-0.62304 -1.43945,-0.62305 -2.2666,-1.86914 -0.8164,-1.25684 -0.85937,-2.83594 z" />
      </g>
      <g
         id="text3871-4-2-0"
         style="font-size:22px;font-family:Arial;text-anchor:middle;display:inline;fill:#0000ff"
         aria-label="E"
         transform="matrix(2.0000008,0,0,2.0000008,245.88968,112.83148)">
        <path
           inkscape:connector-curvature="0"
           id="path4830-7-5-6"
           d="M 69.392578,319.33334 V 303.5853 h 11.386719 v 1.8584 h -9.302735 v 4.82324 h 8.711915 v 1.84765 h -8.711915 v 5.36036 h 9.667969 v 1.85839 z" />
      </g>
      <path
         inkscape:connector-curvature="0"
         id="text3819-9"
         d="m 460.116,719.85067 v 5.82082 l 3.17501,-1.5875 v -4.23332 z m -12.17084,0 c -3.69432,0 -6.70898,1.4464 -9.04476,4.3392 -2.33581,2.87882 -3.50425,6.86806 -3.50425,11.9689 0,2.69717 0.50128,5.25439 1.50232,7.67203 0.69819,1.68632 1.63079,3.11898 2.78707,4.30898 l 1.7052,-3.31468 c -1.61108,-2.12332 -2.41896,-4.9893 -2.41896,-8.60281 0,-4.6257 0.88142,-7.92412 2.64514,-9.89458 1.7757,-1.98442 3.8914,-2.97684 6.3463,-2.97684 1.4285,0 2.73676,0.35918 3.92906,1.0659 l 1.61582,-3.14022 c -1.68866,-0.94654 -3.5414,-1.42588 -5.56294,-1.42588 z m 8.15044,3.39332 -1.73616,3.37414 c 0.5728,0.7551 1.05302,1.62642 1.4335,2.6229 0.72696,1.85866 1.09038,4.03908 1.09038,6.5406 0,3.95489 -0.84626,7.00831 -2.5385,9.16047 -1.68036,2.15212 -3.82504,3.22792 -6.43492,3.22792 -1.50604,0 -2.86306,-0.36928 -4.07264,-1.1032 l -1.58912,3.08678 c 1.70734,0.99372 3.59876,1.49646 5.67898,1.49646 2.2762,0 4.39802,-0.62898 6.3644,-1.88672 1.9663,-1.27172 3.48596,-3.13714 4.5585,-5.59674 1.07252,-2.45956 1.60804,-5.24738 1.60804,-8.36381 0,-3.07448 -0.51178,-5.8211 -1.53668,-8.23874 -0.7111,-1.7071 -1.6565,-3.14334 -2.82578,-4.32006 z"
         style="font-size:22px;font-family:Arial;text-anchor:middle;display:inline;fill:#0000ff;stroke-width:1.80202"
         sodipodi:nodetypes="cccccscssccscsccscccscsccscsscc" />
      <g
         id="text3791-7-0-0-8"
         style="font-size:22px;font-family:Arial;text-anchor:middle;display:inline;fill:#0000ff"
         aria-label="C"
         transform="matrix(2.0000008,0,0,2.0000008,110.51963,379.49827)">
        <path
           inkscape:connector-curvature="0"
           id="path4696-9-9-4-8"
           d="m 199.98437,180.47852 2.08399,0.52636 c -0.43685,1.71159 -1.22461,3.01856 -2.36328,3.9209 -1.13151,0.89518 -2.51726,1.34277 -4.15723,1.34277 -1.69727,0 -3.07943,-0.34375 -4.14648,-1.03125 -1.0599,-0.69466 -1.4518,-1.69481 -1.72927,-3.00781 v -8.50781 c 0.27747,-1.29169 0.93077,-2.15202 2.08376,-2.78223 1.16015,-0.63737 2.43489,-0.95605 3.82422,-0.95605 1.57552,0 2.90039,0.40104 3.97461,1.20312 1.07422,0.80209 1.82259,1.93002 2.24511,3.38379 l -2.05175,0.4834 c -0.36523,-1.14583 -0.89518,-1.98014 -1.58985,-2.50293 -0.69466,-0.52279 -1.56836,-0.78418 -2.62109,-0.78418 -1.21029,0 -2.22363,0.29004 -3.04004,0.87012 -0.80925,0.58008 -0.85378,2.3418 -0.85378,2.3418 v 6.53125 c 0,0 0.23431,1.74023 1.05788,2.23437 0.82357,0.49414 1.71517,0.74121 2.67481,0.74121 1.16731,0 2.15559,-0.33659 2.96484,-1.00976 0.80925,-0.67318 1.3571,-1.6722 1.64355,-2.99707 z"
           sodipodi:nodetypes="cccsccccssccsscccsssc" />
      </g>
      <g
         id="text3821-5-4"
         style="font-size:22px;font-family:Arial;text-anchor:middle;display:inline;mix-blend-mode:normal;fill:#0000ff"
         aria-label="L"
         transform="matrix(2.0000008,0,0,2.0000008,-75.639706,312.83159)">
        <path
           inkscape:connector-curvature="0"
           id="path4743-0-4"
           d="m 310.48828,219.33333 v -15.74805 h 2.08399 v 13.88965 h 7.75585 v 1.8584 z" />
      </g>
      <path
         inkscape:connector-curvature="0"
         id="text3819-9-7-8"
         d="m 608.11178,719.85067 c -3.69432,0 -6.70898,1.4464 -9.04476,4.3392 -2.3358,2.87882 -3.50424,6.86806 -3.50424,11.9689 0,2.69717 0.50128,5.25439 1.50234,7.67203 0.69816,1.68632 1.63076,3.11898 2.78706,4.30898 l 1.70518,-3.31468 c -1.61108,-2.12332 -2.41894,-4.9893 -2.41894,-8.60281 0,-4.6257 0.88142,-7.92412 2.64512,-9.89458 1.77572,-1.98442 3.8914,-2.97684 6.34632,-2.97684 1.4285,0 2.73676,0.35918 3.92906,1.0659 l 1.61583,-3.14022 c -1.68867,-0.94654 -3.54141,-1.42588 -5.56297,-1.42588 z m 8.15045,3.39332 -1.73616,3.37414 c 0.5728,0.7551 1.05302,1.62642 1.4335,2.6229 0.72696,1.85866 1.09038,4.03908 1.09038,6.5406 0,3.95489 -0.84626,7.00831 -2.5385,9.16047 -1.68036,2.15212 -3.82505,3.22792 -6.43493,3.22792 -1.50604,0 -2.86306,-0.36928 -4.07264,-1.1032 l -1.58912,3.08678 c 1.70734,0.99372 3.59876,1.49646 5.67898,1.49646 2.2762,0 4.39802,-0.62898 6.36441,-1.88672 1.9663,-1.27172 3.48596,-3.13714 4.5585,-5.59674 1.07252,-2.45956 1.60804,-5.24738 1.60804,-8.36381 0,-3.07448 -0.51178,-5.8211 -1.53668,-8.23874 -0.7111,-1.7071 -1.6565,-3.14334 -2.82578,-4.32006 z"
         style="font-size:22px;font-family:Arial;text-anchor:middle;display:inline;fill:#0000ff;stroke-width:1.80202"
         sodipodi:nodetypes="scssccscsccscccscsccscsscc" />
      <g
         id="text3791-7-0-0"
         style="font-size:22px;font-family:Arial;text-anchor:middle;display:inline;fill:#0000ff"
         aria-label="C"
         transform="matrix(2.0000008,0,0,2.0000008,269.26975,379.49827)">
        <path
           inkscape:connector-curvature="0"
           id="path4696-9-9-4"
           d="m 199.98437,180.47852 2.08399,0.52636 c -0.43685,1.71159 -1.22461,3.01856 -2.36328,3.9209 -1.13151,0.89518 -2.51726,1.34277 -4.15723,1.34277 -1.69727,0 -3.07943,-0.34375 -4.14648,-1.03125 -1.0599,-0.69466 -1.4518,-1.69481 -1.72927,-3.00781 v -8.50781 c 0.27747,-1.29169 0.93077,-2.15202 2.08376,-2.78223 1.16015,-0.63737 2.43489,-0.95605 3.82422,-0.95605 1.57552,0 2.90039,0.40104 3.97461,1.20312 1.07422,0.80209 1.82259,1.93002 2.24511,3.38379 l -2.05175,0.4834 c -0.36523,-1.14583 -0.89518,-1.98014 -1.58985,-2.50293 -0.69466,-0.52279 -1.56836,-0.78418 -2.62109,-0.78418 -1.21029,0 -2.22363,0.29004 -3.04004,0.87012 -0.80925,0.58008 -0.85378,2.3418 -0.85378,2.3418 v 6.53125 c 0,0 0.23431,1.74023 1.05788,2.23437 0.82357,0.49414 1.71517,0.74121 2.67481,0.74121 1.16731,0 2.15559,-0.33659 2.96484,-1.00976 0.80925,-0.67318 1.3571,-1.6722 1.64355,-2.99707 z"
           sodipodi:nodetypes="cccsccccssccsscccsssc" />
      </g>
      <g
         id="text3849-4"
         style="font-size:22px;font-family:Arial;text-anchor:middle;fill:#0000ff"
         aria-label="K"
         transform="matrix(2.0000008,0,0,2.0000008,562.38024,179.4982)">
        <path
           inkscape:connector-curvature="0"
           id="path4779-6"
           d="m 69.263672,286 v -15.74805 h 2.083984 v 7.80957 l 7.820313,-7.80957 h 2.825195 L 75.386719,276.63281 82.283203,286 h -2.75 l -5.607422,-7.9707 -2.578125,2.51367 V 286 Z" />
      </g>
      <path
         inkscape:connector-curvature="0"
         id="text3859-4-3-9"
         d="m 435.46453,212.00633 v 3.48611 c 5.0599,0.018 10.12084,-0.0512 15.18486,0.0298 2.19104,0.0732 4.59843,1.06718 5.38605,3.2747 1.02472,2.58366 -0.44674,5.86428 -3.18135,6.59964 -2.78068,0.77872 -5.69464,0.43006 -8.5449,0.50958 -2.94726,0.002 -5.8932,0.006 -8.84466,0.004 v 17.59167 h 4.16824 v -14.10429 h 7.51312 c 0,-0.004 5.5629,10.00079 8.18825,14.10423 h 5.24308 l -8.13967,-14.10423 c 3.10387,-0.3703 5.77553,-1.91788 7.27275,-4.85222 2.09046,-3.95528 0.62224,-9.70194 -3.60752,-11.56952 -3.43539,-1.33059 -7.18243,-0.88641 -10.78747,-0.96977 h -9.85078 z"
         style="font-size:22px;font-family:Arial;text-anchor:middle;display:inline;fill:#0000ff;stroke-width:2"
         sodipodi:nodetypes="ccccccccccccccccccc" />
      <path
         inkscape:connector-curvature="0"
         id="text3859-4-3-9-2"
         d="m 435.46453,402.50633 v 3.48611 c 5.0599,0.018 10.12084,-0.0512 15.18486,0.0298 2.19104,0.0732 4.59843,1.06718 5.38605,3.2747 1.02472,2.58366 -0.44674,5.86428 -3.18135,6.59964 -2.78068,0.77872 -5.69464,0.43006 -8.5449,0.50958 -2.94726,0.002 -5.8932,0.006 -8.84466,0.004 v 17.59167 h 4.16824 v -14.10429 h 7.51312 c 0,-0.004 5.5629,10.00079 8.18825,14.10423 h 5.24308 l -8.13967,-14.10423 c 3.10387,-0.3703 5.77553,-1.91788 7.27275,-4.85222 2.09046,-3.95528 0.62224,-9.70194 -3.60752,-11.56952 -3.43539,-1.33059 -7.18243,-0.88641 -10.78747,-0.96977 h -9.85078 z"
         style="font-size:22px;font-family:Arial;text-anchor:middle;display:inline;fill:#0000ff;stroke-width:2"
         sodipodi:nodetypes="ccccccccccccccccccc" />
      <path
         inkscape:connector-curvature="0"
         id="text3859-4-3-9-2-2"
         d="m 594.21457,466.00637 v 3.48611 c 5.0599,0.018 10.12084,-0.0512 15.18486,0.0298 2.19104,0.0732 4.59843,1.06718 5.38605,3.2747 1.02472,2.58366 -0.44674,5.86428 -3.18135,6.59964 -2.78068,0.77872 -5.69464,0.43006 -8.5449,0.50958 -2.94726,0.002 -5.8932,0.006 -8.84466,0.004 v 17.59167 h 4.16824 v -14.10429 h 7.51312 c 0,-0.004 5.5629,10.00079 8.18825,14.10423 h 5.24308 l -8.13967,-14.10423 c 3.10387,-0.3703 5.77553,-1.91788 7.27275,-4.85222 2.09046,-3.95528 0.62224,-9.70194 -3.60752,-11.56952 -3.43539,-1.33059 -7.18243,-0.88641 -10.78747,-0.96977 h -9.85078 z"
         style="font-size:22px;font-family:Arial;text-anchor:middle;display:inline;fill:#0000ff;stroke-width:2"
         sodipodi:nodetypes="ccccccccccccccccccc" />
      <path
         inkscape:connector-curvature="0"
         id="text3859-4-3-9-2-2-4"
         d="m 329.63123,529.5064 v 3.48611 c 5.0599,0.018 10.12084,-0.0512 15.18486,0.0298 2.19104,0.0732 4.59843,1.06718 5.38605,3.2747 1.02472,2.58366 -0.44674,5.86428 -3.18135,6.59964 -2.78068,0.77872 -5.69464,0.43006 -8.5449,0.50958 -2.94726,0.002 -5.8932,0.006 -8.84466,0.004 v 17.59167 h 4.16824 v -14.10429 h 7.51312 c 0,-0.004 5.5629,10.00079 8.18825,14.10423 h 5.24308 l -8.13967,-14.10423 c 3.10387,-0.3703 5.77553,-1.91788 7.27275,-4.85222 2.09046,-3.95528 0.62224,-9.70194 -3.60752,-11.56952 -3.43539,-1.33059 -7.18243,-0.88641 -10.78747,-0.96977 h -9.85078 z"
         style="font-size:22px;font-family:Arial;text-anchor:middle;display:inline;fill:#0000ff;stroke-width:2"
         sodipodi:nodetypes="ccccccccccccccccccc" />
      <g
         id="text3791-7-0-0-7-7"
         style="font-size:22px;font-family:Arial;text-anchor:middle;display:inline;fill:#0000ff"
         aria-label="C"
         transform="matrix(2.0000008,0,0,2.0000008,-152.47601,-128.50201)">
        <path
           inkscape:connector-curvature="0"
           id="path4696-9-9-4-7-7"
           d="m 199.98437,180.47852 2.08399,0.52636 c -0.43685,1.71159 -1.22461,3.01856 -2.36328,3.9209 -1.13151,0.89518 -2.51726,1.34277 -4.15723,1.34277 -1.69727,0 -3.07943,-0.34375 -4.14648,-1.03125 -1.0599,-0.69466 -1.4518,-1.69481 -1.72927,-3.00781 v -8.50781 c 0.27747,-1.29169 0.93077,-2.15202 2.08376,-2.78223 1.16015,-0.63737 2.43489,-0.95605 3.82422,-0.95605 1.57552,0 2.90039,0.40104 3.97461,1.20312 1.07422,0.80209 1.82259,1.93002 2.24511,3.38379 l -2.05175,0.4834 c -0.36523,-1.14583 -0.89518,-1.98014 -1.58985,-2.50293 -0.69466,-0.52279 -1.56836,-0.78418 -2.62109,-0.78418 -1.21029,0 -2.22363,0.29004 -3.04004,0.87012 -0.80925,0.58008 -0.85378,2.3418 -0.85378,2.3418 v 6.53125 c 0,0 0.23431,1.74023 1.05788,2.23437 0.82357,0.49414 1.71517,0.74121 2.67481,0.74121 1.16731,0 2.15559,-0.33659 2.96484,-1.00976 0.80925,-0.67318 1.3571,-1.6722 1.64355,-2.99707 z"
           sodipodi:nodetypes="cccsccccssccsscccsssc" />
      </g>
    </g>
  </g>
</svg>
